/* XPM */
static char *_3c68c118a5245538bc50e5cbca33085OZ12dq7TJi7JlFhC[] = {
/* columns rows colors chars-per-pixel */
"32 32 218 2 ",
"   c #BE6E3D",
".  c #BA713E",
"X  c #C65E37",
"o  c #D7662E",
"O  c #D36B2E",
"+  c #CD6636",
"@  c #CD6B36",
"#  c #CE653C",
"$  c #C36C3E",
"%  c #CC6C3C",
"&  c #C6633A",
"*  c #D26731",
"=  c #D96637",
"-  c #D46A36",
";  c #D4653B",
":  c #DA673C",
">  c #D46B3D",
",  c #DC6B3B",
"<  c #CF7036",
"1  c #CC723D",
"2  c #D3733C",
"3  c #D47C3C",
"4  c #E06E3A",
"5  c #BE6F48",
"6  c #BE6B43",
"7  c #BF735B",
"8  c #D55F43",
"9  c #C46643",
"0  c #CC6544",
"q  c #C46C43",
"w  c #CC6C44",
"e  c #C6654B",
"r  c #CB654C",
"t  c #C46C4B",
"y  c #CC6D4B",
"u  c #D46544",
"i  c #D36B43",
"p  c #DA6C44",
"a  c #D2664A",
"s  c #D36B4B",
"d  c #DB6B4B",
"f  c #D96649",
"g  c #C67245",
"h  c #CC7243",
"j  c #C5724B",
"k  c #CD724D",
"l  c #D27245",
"z  c #D2724B",
"x  c #D67548",
"c  c #C66655",
"v  c #CB6753",
"b  c #CD6C52",
"n  c #D36D51",
"m  c #DC6B52",
"M  c #D46E58",
"N  c #DA6D58",
"B  c #C57350",
"V  c #CC7352",
"C  c #C67558",
"Z  c #CF705A",
"A  c #D27251",
"S  c #DA7152",
"D  c #DF7158",
"F  c #D5715A",
"G  c #E66A47",
"H  c #CE7F61",
"J  c #E08C5E",
"K  c #C18F6E",
"L  c #CB8A6C",
"P  c #D58462",
"I  c #D38C65",
"U  c #D7846B",
"Y  c #DB866D",
"T  c #D48B6C",
"R  c #DB8C6C",
"E  c #DE8162",
"W  c #D2916C",
"Q  c #DD946B",
"!  c #CC8F70",
"~  c #CC8C7C",
"^  c #D78673",
"/  c #DB8573",
"(  c #D38B72",
")  c #DB8C74",
"_  c #D38B7C",
"`  c #DC8C7B",
"'  c #D8857D",
"]  c #CF9679",
"[  c #D49374",
"{  c #DA9474",
"}  c #D4947D",
"|  c #DB947B",
" . c #D39A7B",
".. c #DE9C7F",
"X. c #E6846B",
"o. c #E08C70",
"O. c #E28D78",
"+. c #E1937B",
"@. c #F1937A",
"#. c #DC8B81",
"$. c #CE9B80",
"%. c #D39584",
"&. c #DB9382",
"*. c #D69A81",
"=. c #DD9C83",
"-. c #DD9F8D",
";. c #E78C89",
":. c #E29482",
">. c #E39E85",
",. c #E09288",
"<. c #E89F8C",
"1. c #E89585",
"2. c #E29E91",
"3. c #DAA484",
"4. c #D6A48D",
"5. c #DBA48D",
"6. c #D6AB8C",
"7. c #DCAB8C",
"8. c #D4A382",
"9. c #D0B78F",
"0. c #DCB48E",
"q. c #DCA593",
"w. c #D7AF93",
"e. c #DBAB94",
"r. c #D9A698",
"t. c #DDAC9A",
"y. c #D5A895",
"u. c #D6B593",
"i. c #DCB295",
"p. c #DCB39C",
"a. c #D5BC9C",
"s. c #DEBB9C",
"d. c #E4A58C",
"f. c #E4AA8C",
"g. c #E9AA8E",
"h. c #E0A386",
"j. c #E3B38F",
"k. c #E3A594",
"l. c #E9A492",
"z. c #E3AB94",
"x. c #EAAC94",
"c. c #E3A59B",
"v. c #EBA59A",
"b. c #E3AB9B",
"n. c #EAAA9C",
"m. c #F1A89D",
"M. c #E3B292",
"N. c #EAB394",
"B. c #E8B894",
"V. c #E3B39C",
"C. c #EBB49C",
"Z. c #E1BA9B",
"A. c #F0B299",
"S. c #FA9CAA",
"D. c #DDADA4",
"F. c #D6AFA8",
"G. c #D3ADA2",
"H. c #CFB9A1",
"J. c #CDB1A6",
"K. c #D5B3A1",
"L. c #DBB3A3",
"P. c #D6B9A2",
"I. c #DDBBA4",
"U. c #DCB4A9",
"Y. c #DCBCA9",
"T. c #D4B8AA",
"R. c #DCAEB0",
"E. c #D7BAB6",
"W. c #DDBBB3",
"Q. c #E1A7A5",
"!. c #E2ACA2",
"~. c #EAACA1",
"^. c #E6AFAB",
"/. c #F0AEA2",
"(. c #E3B4A4",
"). c #EEB4A0",
"_. c #E5BBA5",
"`. c #E1B4A9",
"'. c #EAB3AB",
"]. c #E2BCAB",
"[. c #EABDAD",
"{. c #E9BAA6",
"}. c #F3B8AB",
"|. c #E4B6B5",
" X c #E3BCB2",
".X c #EBBCB1",
"XX c #E6BDBC",
"oX c #E3BBBB",
"OX c #ECBEB9",
"+X c #DDC2AB",
"@X c #DDC3B5",
"#X c #DECABB",
"$X c #DAC1BD",
"%X c #E2C0A7",
"&X c #E3C1AD",
"*X c #ECC2AC",
"=X c #E4C3B4",
"-X c #EAC3B2",
";X c #E3C8B6",
":X c #E4C2BA",
">X c #EAC2B9",
",X c #E3CBBB",
"<X c #F1C2B2",
"1X c #E9BBC3",
"2X c #DDC6C3",
"3X c #DDC9C0",
"4X c #D7D1C5",
"5X c #DFD2C2",
"6X c #E4C4C4",
"7X c #EBC3C2",
"8X c #E3CDC5",
"9X c #E8C9C6",
"0X c #EFC1CB",
"qX c #EDCACD",
"wX c #E6CECA",
"eX c #F1CDCD",
"rX c #ECC9D0",
"tX c #E9D6DA",
/* pixels */
"y z.s i f % p.a % u ; _.0 b 2 u K.s p 0 l b.y w w d v.s y $ V l.",
"( B.L U ~ I Z.U I _ X.V.[ X.( T C.Y P %.P A./ P R H *X( E ( Y (.",
",.[ %.;.W.:. .:.| XX1.} $.@.R.*.| &.} 7X_ :.,.{ `.} [ &.) oX+.%.",
"a q 9 D >.X B 0 w x.9 B y & d.w 6 b t d.k t b w 5.y % d t _.9 y ",
"p.#XC.6.(.j.4Xz.z.p.N.8Xl.(.0.n.5Xx.5._.M.,Xz.q.L.z.#X7.b.V.t.,X",
"y l.u h a > r.d y a p r.d b < n 5.d d 9 % d.s s u a ^.y s - y k.",
"q.[.2.e.].d.W.d.y. Xd.@X5.q.%Xr.].k.b.W.3.-X-.5.Y.k. Xq.5.+Xq. X",
"w > y y 7.# l w s t.w u u > 4.n = s t n.z ; a w q.w O > n Q.s > ",
"b.s.w.b.-Xe.a.n.z.>Xn.|.6.v.XXe.I.!.k.>Xz.].e.n.&Xb.`.t.d.;Xz.W.",
"r x.w f w i C.a 1 > > 7.i h w 2 z.w w % l q.h y w i z.l i > w f.",
"n.6Xl.v.V.l.wXv.t.~.q.tXv.e.!.c.eXl.x.C.<.qXd.b.!.x.3Xd.b.z.b.;X",
"w w y 7 3.y q w b 3.k e @ k *.b % k 5 d.y b % % 5.e w s t e.k t ",
"T R ) ~ _.) W R ` _.{ / J ) (.) R [ K -X( } I I .X^ o.O.( >X) ( ",
"=. X+.`  .+.@X:.} &.( 6X:.] %.| :X| *.=.) oX{ *.} +.Y.{ | { .._.",
"e n.y a t y (.r g i % e.y g w h c.a s 0 d c.z v q y V.V y i t z.",
"k.i.4.n.<X5.u.l.d.>Xv.`.8.v.OX5.i.b.d.-Xf.s.3.g.*Xk.t.q.d.;Xd.F.",
"- i % c M.u i > g p.u t 4 u y.w , 0 y b.g i 0 p 5.w ; % N e.m % ",
"b.6X(.x.C.D.2Xb.b.).A.6Xq.x.}.b.$X/.s. Xn.1Xc.u.].b.=Xn.w.[.i.-X",
"y p.a 3 * v H.s y , w b.j l - y K.p % w w (.A . w d 9.n % i w 6.",
"7.-Xz.6.{.b.@Xf.q.I.~.E.C.c.P.z.@Xx.x.L.M. X5.x.'.V.-Xe.b.'.t.;X",
"p q > Z 3.f q p w C.0 C - S 4.i ; z q N.% u S % h.i 0 i a i.8 w ",
"b.^.P.m.@XD.|.t.b.6Xx.W.7.z.6Xb.P.Q.x.rX!.L.Q.M.,Xi.(.V.e.;XV.U.",
"y d.w p g r z.w i l + g.w % A u 0.u ; F 9 f.n % h # 7.k > w x 3.",
"| [.)  .| &.&X+.{ [ :.OX| #. .)  X+.| ] Q '.) | ` +..X&.) } }  X",
"T T ' ~  X' ( W ` Y.[ ) T T I.#.W ) ( 1X_ ! ` T `._ _ _ R [.R _ ",
"y d + z ..+ m w w g.0 y G 9 3.0 w > y >.l h # s =.p h - V z.0 h ",
"!.7Xz.q.T.N.0Xt.e.'.L.2XS.a.L.b.qXd.b.U.B.:Xz.D.(.z.8X4.D.!.G.,X",
"w x.s ; t i k.h i $ , 3.M -   f e.p @ b 0 f.s j i u _.y f % d k.",
"q.s.t.k.:Xt.L.M.z.&Xz._.6.f.*Xc.+X-.N.XXq.&Xb.7.:Xr.n.z.5.:Xe.(.",
"n o q V d.$ : w w u.r % x a w.y + y w b.$ - w p 6.y 1 i w s.> h ",
"~.C.i.k.:XM.}.c.z.:X!._.n.b.W.b..Xk.d.9Xz.C.x.l.[.e. Xe.z.[.z.W.",
"y p.q G 9 l D.w i : ; u.c @ i u J.p - u s r.s g i i b.s s i b q."
};
