/* XPM */
static char *pigeon[] = {
/* columns rows colors chars-per-pixel */
"32 32 203 2 ",
"   c #120E15",
".  c #141117",
"X  c #151219",
"o  c #1B161C",
"O  c #1B181F",
"+  c #25161D",
"@  c #231B1D",
"#  c #2D171F",
"$  c #37251F",
"%  c #1C1920",
"&  c #171B28",
"*  c #231F31",
"=  c #2D1C29",
"-  c #1C222B",
";  c #18273D",
":  c #2A272A",
">  c #352120",
",  c #352827",
"<  c #2E2A31",
"1  c #332C35",
"2  c #3D2B35",
"3  c #322D3C",
"4  c #35333A",
"5  c #333037",
"6  c #38322B",
"7  c #4A271E",
"8  c #461D28",
"9  c #462823",
"0  c #58232E",
"q  c #4B3A2B",
"w  c #553629",
"e  c #472A38",
"r  c #562132",
"t  c #6A252E",
"y  c #692932",
"u  c #792A3A",
"i  c #643337",
"p  c #7E3E36",
"a  c #703C29",
"s  c #594434",
"d  c #69442D",
"f  c #77432C",
"g  c #7D473D",
"h  c #6E5326",
"j  c #70613C",
"k  c #0E1F4A",
"l  c #0D2558",
"z  c #1D3957",
"x  c #16254A",
"c  c #272749",
"v  c #252D58",
"b  c #312D57",
"n  c #3B3955",
"m  c #3C2E44",
"M  c #10397D",
"N  c #0D2F6E",
"B  c #293562",
"V  c #50384D",
"C  c #7A2F48",
"Z  c #483E66",
"A  c #194059",
"S  c #355155",
"D  c #1B4C64",
"F  c #1B4766",
"G  c #1F5872",
"H  c #3A4667",
"J  c #245968",
"K  c #235B73",
"L  c #205672",
"P  c #3E5378",
"I  c #256677",
"U  c #2A737C",
"Y  c #356D72",
"T  c #464C58",
"R  c #4B575A",
"E  c #675644",
"W  c #604550",
"Q  c #695053",
"!  c #776448",
"~  c #484767",
"^  c #495968",
"/  c #4C4676",
"(  c #4D4879",
")  c #474374",
"_  c #524A7B",
"`  c #56596F",
"'  c #624963",
"]  c #496567",
"[  c #586975",
"{  c #47726A",
"}  c #646168",
"|  c #677278",
" . c #736E62",
".. c #89352B",
"X. c #9B3E2E",
"o. c #91342B",
"O. c #882E3B",
"+. c #883634",
"@. c #963930",
"#. c #915E2E",
"$. c #8A4934",
"%. c #974835",
"&. c #915639",
"*. c #B9572D",
"=. c #A74736",
"-. c #AA593A",
";. c #BA5B34",
":. c #B55533",
">. c #B54D31",
",. c #9B673D",
"<. c #9D6938",
"1. c #997E3F",
"2. c #AA6833",
"3. c #B96731",
"4. c #BB7A3C",
"5. c #B4763C",
"6. c #B1692C",
"7. c #CA582C",
"8. c #CC5C30",
"9. c #C45A35",
"0. c #D17F2F",
"q. c #CB6A35",
"w. c #CA7638",
"e. c #D2783E",
"r. c #D46C2C",
"t. c #E47738",
"y. c #B83B41",
"u. c #CB3A48",
"i. c #8D4E49",
"p. c #904F4D",
"a. c #95564B",
"s. c #875359",
"d. c #826945",
"f. c #A3704A",
"g. c #A56740",
"h. c #8B5E60",
"j. c #987C76",
"k. c #AE706F",
"l. c #3C837D",
"z. c #6F9E7C",
"x. c #BF843B",
"c. c #D68B2E",
"v. c #D88B2B",
"b. c #D58634",
"n. c #DB9B38",
"m. c #C6903D",
"M. c #E09F3A",
"N. c #E39F36",
"B. c #E4A83D",
"V. c #85875A",
"C. c #B1814C",
"Z. c #B29053",
"A. c #A39264",
"S. c #C28A48",
"D. c #C99644",
"F. c #D9BA57",
"G. c #D1A84B",
"H. c #E3B349",
"J. c #E4AB40",
"K. c #C1AB6C",
"L. c #F2D779",
"P. c #134794",
"I. c #304E82",
"U. c #265B92",
"Y. c #2D7B88",
"T. c #2C6D93",
"R. c #29759B",
"E. c #3D6292",
"W. c #1550A1",
"Q. c #2C73AE",
"!. c #565086",
"~. c #585083",
"^. c #50718E",
"/. c #348F8F",
"(. c #389696",
"). c #2F8990",
"_. c #3FAB9C",
"`. c #2F87BA",
"'. c #3DACA6",
"]. c #66998E",
"[. c #43AD9E",
"{. c #42B09E",
"}. c #6EAC8F",
"|. c #75B189",
" X c #4D93B0",
".X c #4187AA",
"XX c #43ACA1",
"oX c #45B8A6",
"OX c #59A0A8",
"+X c #48C5AB",
"@X c #2484D4",
"#X c #2892D2",
"$X c #2B94CD",
"%X c #34A2CD",
"&X c #3BB8E6",
"*X c #4EAEC1",
"=X c #56BFCE",
"-X c #6EB4C3",
";X c #74C1D1",
":X c #75CFE5",
">X c #AB8C85",
",X c #F2DB92",
"<X c #80CAE2",
/* pixels */
"X X X X X X X X X X X X X X . . . . X . . X X X . X X X X X X X ",
"X X X X X X X X X X X X X X . . . . X X X . X X X X X X X X X X ",
"X X X X X X X X X X X X X X : ^ ] 4 X X X o X X X X X X X X X X ",
"X X X X X X X X X X X X . S -X:X:X;XY X X X X . X X X X X X X X ",
"X X X X X X X X X X X X & R.&X&X&X&X`.;   . o . X X X X X X X X ",
"X X X X X X X X X X X X ; H Q.$X#X`.H v . . X X X X o X X X X X ",
"X X X X X X X X X X X X K ^.n  .V.Z ` T.X . X X X X X X X X X X ",
"X X X o X X X X X X X X R.%XP D.H.T $X`.& . X X X X X X X X X X ",
"X X X X X X X X X X X @ U.@XE.4.D.' @XQ.- X X X X X X X X X X X ",
"X X X X X X X X X X   q P W.N q h k P.I.s X X X X X o X X X X X ",
"X X X X X X X X X   X #.,.V l x * l 2 E 5.@ . X X X X X X X X X ",
"X X X X X X X X . : E 5.8.*.B M N B :.7.q.! 6 . X X X X X X X X ",
"X X X X X X X X O A.L.F.s $.g v v p %.W Z.,XK., X X X X X X o X ",
"X X X X X X X X 6 G.F.|.).S ..y V 8 V Y.|.F.H.j X X X X X X X X ",
"X X X X X X X X d.D.z.'.(.] ;.&.n b T OX=X].m.x.@ X X X X X X X ",
"X X o X X X X : m.x.j.>X>X .q.a.~ _ [ *X:X X<.z.S X X X X X X X ",
"X X X . X X o ! g.2.Q } k.s.w.f.) ~.| %X:X`.$.R J @ . X X X X X ",
". X X o X X $ -.3.%.} | k.s.w.C.~ _ ` R.$XT.%.6.l.J X . X X X X ",
"X X X X X X w 5.v.%.Q s.! W e.C.' !.] K F z +.b.x.S O . o X X X ",
"X X X X X O $.n.v.$.F G K ~ b.4.p.( ^ I D z p b.n.#.@ . . X X X ",
". X X X   q w.e.;.i D (.oX] N.S.p.( ^ [./.z i :.q.w.w . X X X X ",
"X X X X   q -.=.@.e D _.+X{ N.S.p.( ^ {._.J 2 ..=.-.w . X X X X ",
"X X X X . d e.q.%.2 I {.'.] n.x.a.!.P _.oXU 1 X.q.e.h . X X X X ",
"X X X o   a 9.>.o.2 l.oX).^ J.D.a./ ^ _.XXl.2 X.*.9.h X X X X X ",
"X X X X X $ 2.;.o.3 Y.(.Y.^ B.D.a.!.~ )./.U : ..>.;.9   X X X X ",
"X X X X X d t.8.@.m L K G T M.4.p.) ~ G I F 3 ..9.t.f X X X X X ",
"X X X X X 9 =.@.t , c b c V v.4.p.) V c c c = t O.%.9 X X X X X ",
"X X X X X o 0 O.t o r C u =.r.g.V ) Z V C r + u O.r o . X X X X ",
"X X X X X X # =.%.o t u.y.7.r.g.Z ( Z C u.0 + %.=.+ X X X X X X ",
"X X X X X X o > O X + 8 8 7 9 > % * * = 8 + . + = X X   X X X X ",
"X X X X X X X X   X X     X X X     o X . X O O O % % % % % % o ",
"X X X X X X X X X X X X X X X X X X X X X O 4 4 4 4 5 < 5 < < : "
};
