/* XPM */
static char *violet[] = {
/* columns rows colors chars-per-pixel */
"32 32 163 2 ",
"   c #7C4CF0",
".  c #665FF3",
"X  c #6D5DF7",
"o  c #7357F4",
"O  c #7C53F4",
"+  c #735BF5",
"@  c #7B5CF5",
"#  c #7B5BF9",
"$  c #5C62F4",
"%  c #556CF4",
"&  c #5C6BF6",
"*  c #5373F4",
"=  c #5C73F6",
"-  c #537BF6",
";  c #5C7AF7",
":  c #5B76F8",
">  c #5F79F9",
",  c #6263F6",
"<  c #6168F6",
"1  c #6969F7",
"2  c #6D66F9",
"3  c #646CF9",
"4  c #6C6DF9",
"5  c #7465F7",
"6  c #7D62F7",
"7  c #7365F9",
"8  c #7C64F9",
"9  c #736CFA",
"0  c #7D6DFA",
"q  c #6576F6",
"w  c #6575F9",
"e  c #6B73FA",
"r  c #647DFA",
"t  c #6C7CFC",
"y  c #7971F7",
"u  c #7578F6",
"i  c #7374FB",
"p  c #7C74FC",
"a  c #737CFC",
"s  c #7B7CFC",
"d  c #814DF1",
"f  c #8053F4",
"g  c #8956F6",
"h  c #855CF7",
"j  c #895BF6",
"k  c #865EFA",
"l  c #8F5DF8",
"z  c #985CF6",
"x  c #816DF7",
"c  c #8262F9",
"v  c #8964F9",
"b  c #846DFC",
"n  c #8B6BFA",
"m  c #9A65F6",
"M  c #9D6AF7",
"N  c #9364F8",
"B  c #936CF9",
"V  c #9F6FF9",
"C  c #8374FB",
"Z  c #8C75FB",
"A  c #837CFC",
"S  c #8B7CFC",
"D  c #9275FB",
"F  c #9A72F9",
"G  c #937CFB",
"H  c #9E7CF9",
"J  c #A26CF6",
"K  c #A86FF6",
"L  c #A974F6",
"P  c #A57BF6",
"I  c #AA7CF6",
"U  c #A075F9",
"Y  c #A479F8",
"T  c #4E83F3",
"R  c #5284F5",
"E  c #5A82F7",
"W  c #548CF4",
"Q  c #5B8BF7",
"!  c #5E85F9",
"~  c #5D8CF8",
"^  c #5B94F6",
"/  c #5F91F9",
"(  c #6284F7",
")  c #6289F7",
"_  c #6484FA",
"`  c #6C83FB",
"'  c #658BFA",
"]  c #6B8CFB",
"[  c #7581F6",
"{  c #7484FD",
"}  c #7B84FD",
"|  c #748BFC",
" . c #7B8CFC",
".. c #6394F7",
"X. c #649AF6",
"o. c #6C9EF6",
"O. c #6593F9",
"+. c #6C93FA",
"@. c #6599F9",
"#. c #6D9CF9",
"$. c #739BF6",
"%. c #7394FB",
"&. c #7B92FC",
"*. c #719BF9",
"=. c #7C9BFA",
"-. c #5AA2F2",
";. c #76BEEC",
":. c #7BB8ED",
">. c #65A2F5",
",. c #6EA5F7",
"<. c #6EABF3",
"1. c #6DA1F8",
"2. c #79A7F6",
"3. c #72ACF5",
"4. c #7AADF2",
"5. c #77A0F8",
"6. c #7AA1F9",
"7. c #78B3F2",
"8. c #8383FD",
"9. c #8B83FC",
"0. c #848CFC",
"q. c #8D8BFC",
"w. c #9785F7",
"e. c #9383FC",
"r. c #9C82FA",
"t. c #938BFA",
"y. c #9C8AF9",
"u. c #8F9BF7",
"i. c #8293FB",
"p. c #8C94FB",
"a. c #819BFB",
"s. c #8A9AFA",
"d. c #9298F5",
"f. c #9A9CF7",
"g. c #9394FA",
"h. c #9C92F9",
"j. c #919DF9",
"k. c #9C9AF8",
"l. c #B88BEE",
"z. c #A686F7",
"x. c #AA82F6",
"c. c #A38BF7",
"v. c #A98BF6",
"b. c #A285F9",
"n. c #A38BF8",
"m. c #B083F3",
"M. c #A397F7",
"N. c #A990F6",
"B. c #A49BF4",
"V. c #AC98F3",
"C. c #B294F1",
"Z. c #82B3EF",
"A. c #89B8EE",
"S. c #80A7F3",
"D. c #8DA1F6",
"F. c #82AEF4",
"G. c #88ABF3",
"H. c #85A2F9",
"J. c #8AA1F8",
"K. c #92A4F6",
"L. c #9EA3F4",
"P. c #98A9F3",
"I. c #AEA2ED",
/* pixels */
"] @.1.=.1.=.a.s.g.9.s t { 8.9.9.{ +.6.u.] R = [ q.L S i p b F G ",
"{ ` |  .=.2.=.0.9.Z i 1 8 # j N p s } 9.` T )  .9.v.0.t a S b.r.",
"a w 7 b G | ` s A C e & + # l J p 7 c B } W ..%.q.N.0.) { q.z.e.",
"t ! { S r.{ ` | 8.8.` - t A Y z.} } 8.y.8.' >.o.u.B.&.O.6.s.h.e.",
"{ ] *.s.t.{ +.=.a.a.@.-.<.F.P.B.=.6.H.g. .{ | +.j.g.{ { } 8.Z S ",
"2 5 p C Z 0 } 0.i.&.+.o.4.Z.G.u.} } } S a w i s G S e e 7 c v M ",
", o g k v n n Z Z s e i A A p b p 2 # l 0 ` | } S Z t = . k m F ",
"E ` S S e.9.8.9.9.a w a S 8.` A s w i D Z } { { 8.9.a - ( A z.Y ",
"~ ' 8.A r.w.8.G A e t } 9.q.|  . .'  .t.q.} a } 0.0.` R ' i.n.y.",
"O.@.=.p.k.0.} S s i }  .0.t.|  . .O.%.g.0.|  . .0.0.] ^ #.H.f.h.",
",.<.7.G.p. . .0.t a A  .8.C y 8.} +.=.s.{ a C } 0.0.| *.3.S.K.j.",
"&.*.*. .} s p b a s e.} s p p C S 9 8 b e i C C G 9.|  .&.i.p.q.",
"8.t ` } ` i 2 v C } G a a 8.} 8.p $ j B i 3 8 v U G { i p b b D ",
"8.t s } _ & 9 S H i.i. .=.a.&.&.t * Z H t : C Z L H t a a s S H ",
"} _ } 0.! E a Z P 9.u p Z } s e < = Z P t ! { G I Y a ` } } e.b.",
"} ` } } ! Q ] q.c.A e p r.s t t ( ] u.c.&.~ | 0.z.r.a { }  .q.b.",
"} ` } s _ ~ +.u.h. .] 0.y.{ { ] +.$.D.f.%.^ +.p.n.e.} { } 8.9.r.",
"p 9 9 8 2 t | q.y.{ ` 8.G } ] |  .i.s.p. .X.1.H.k.q.a } { } 9.H ",
"1 , o o O @ 6 B D s : C U S t t s 9.8.s A } ]  .S S  . .s s S S ",
"_ : 3 7 8 c n N J A ! } b.8.t ` s G 9.{ 9.s t 4 k N C 3 9 c n D ",
"( - ; a s p Z D I t.' 0.h. .` ` } e.9.{ 8.{ w : p L G _ |  .q.r.",
"( W X.o.{ y Z Y l.t.' i.y.} _ { { e.G { 8.{ E t 8.v.t.] | i.p.t.",
") / @.>.-.$.u.I.C.q.%.&.9.u t { { 9.S p p p ) O.s.B.g.] %.i.i.t.",
"w t | | <.;.A.L.y.S a i 5 o 6 p i @     d f + y w.y.0.| &.i.i. .",
"$ X @ h D &. .A D D a w w p C p q u u 0 x x y n J L C 9 0 Z A w ",
"% 1 5 N K S t C S D 4 3 < # j n { ` e i x x n G c.z.a i p G C : ",
"R ` | p.z.e._ } e.9.r ` ! r B H a ` ' { a p Z r.x.b.| { 0.t.} ! ",
"^ *.=.J.f.g.] &.g.q.' ] ~ ~ t.c.| ] ] %.+. .e.r.m.b.{ { 9.0.} E ",
"1.<.6.s.g.0.{ &.s.i.] ] ^ X.D.B.5.1.o.+.+.6.D.f.V.y.| | 0.0.0.' ",
"+.( i C v 6 6 n D 9.] %.o.>.D.L.6.o.$.<.:.:.S.d.n.G s &.i.0. .] ",
"r - t C C 0 C Z F F { %.] $.J.g.{ w u S i.] r c z N n Z C C p { ",
"( Q +.&.{ 8.8.0.e.b.A e 9 C S S ` ! | y.8.: : 9 m M Z b # k n p "
};
