/* XPM */
static char *brick_wall_64[] = {
/* columns rows colors chars-per-pixel */
"64 64 255 2 ",
"   c #34B83BEF0C08",
".  c #578B16710FFA",
"X  c #71CF1605101D",
"o  c #5A6E3766053F",
"O  c #4F1C311212EA",
"+  c #6BFF284F04FD",
"@  c #779D2A0D039A",
"#  c #6B05367306A3",
"$  c #75563B53013C",
"%  c #7A7837B8069F",
"&  c #69C8273B186F",
"*  c #7A2129101713",
"=  c #678336B21983",
"-  c #77D437AA15A3",
";  c #7C1D3B9A1BE7",
":  c #54FF1A4B2F0D",
">  c #6F4F1AAD2905",
",  c #5A5C371026AF",
"<  c #5185343E3266",
"1  c #7A4F28B12851",
"2  c #681B39B92699",
"3  c #78EE38AE25B8",
"4  c #6E312D643049",
"5  c #793238873422",
"6  c #345A512F1BA6",
"7  c #5C3C483F03F0",
"8  c #53E748221466",
"9  c #4F10534F136F",
"0  c #69B047600601",
"q  c #7B3143B202C0",
"w  c #73D84AC400AA",
"e  c #78D947D309AD",
"r  c #69A6595A0477",
"t  c #748753CD01FA",
"y  c #79E1576D05F0",
"u  c #697D46AB17AE",
"i  c #789047E7186E",
"p  c #6818565B158A",
"a  c #798F5603174F",
"s  c #577468590C55",
"d  c #688F6613069C",
"f  c #78DF668A05B2",
"g  c #74C175C20CE4",
"h  c #6B2F683E18BC",
"j  c #7C09660E1AB4",
"k  c #59FB48402533",
"l  c #523052932F2F",
"z  c #693F46EB2696",
"x  c #790248BA2769",
"c  c #6AC656062787",
"v  c #7984571E26B8",
"b  c #64B947A13691",
"n  c #78EB474C3637",
"m  c #63AF597B35EE",
"M  c #79D357E1370E",
"N  c #5D3A7B5226B6",
"B  c #6D726D612F03",
"V  c #783B6623274E",
"C  c #7B1A67B935E1",
"Z  c #68BF20DE419E",
"A  c #7107344D46F3",
"S  c #748F490C4E08",
"D  c #7B50587248D2",
"F  c #63E8651C4E50",
"G  c #85F71C5204DD",
"H  c #95C318A30513",
"J  c #85B51A4916BF",
"K  c #9B5D1AB41A97",
"L  c #AB9D0F4109E4",
"P  c #87E0296D03FA",
"I  c #982E28C40344",
"U  c #8824368305B9",
"Y  c #838A3B8E021C",
"T  c #8D353C290110",
"R  c #8597341C0B57",
"E  c #8C453B340AB9",
"W  c #92FF3C8D0205",
"Q  c #99A4386B05D9",
"!  c #88C527DD1798",
"~  c #9715288C180E",
"^  c #83D933EF1354",
"/  c #8AAB38F1183F",
"(  c #92923B1E13CC",
")  c #97F8376E190D",
"_  c #A6A22934029A",
"`  c #A82F383F0627",
"'  c #B54B3ACC04D0",
"]  c #A9572A1D1630",
"[  c #B606274D126C",
"{  c #A717394F18FE",
"}  c #B8C33BC1172D",
"|  c #903D193C2A49",
" . c #AE7516CC2C4A",
".. c #878628582788",
"X. c #970A289726FE",
"o. c #890E3742272F",
"O. c #988F395925E8",
"+. c #888328103771",
"@. c #979229A63770",
"#. c #891738A13658",
"$. c #98793927377A",
"%. c #A38727C7284D",
"&. c #B5062D3B27F8",
"*. c #A73038A025D0",
"=. c #A4823B4F2C99",
"-. c #B82B3A2429B9",
";. c #A68C27173648",
":. c #B4DF2C0A3861",
">. c #A66E38343760",
",. c #B6693994355A",
"<. c #C57616691B5E",
"1. c #C8DF32881376",
"2. c #CE48389B2C9C",
"3. c #C3D33582369D",
"4. c #8C6343B2010A",
"5. c #870949360673",
"6. c #8BB94B6B01DE",
"7. c #848644D60C34",
"8. c #947F4393026D",
"9. c #9BE443E30187",
"0. c #93334C4201BD",
"q. c #9404430A0C71",
"w. c #92984BA10C1A",
"e. c #9C3548B70798",
"r. c #83A05397022F",
"t. c #8B8F53F2010D",
"y. c #87D25B7706B2",
"u. c #965B57CA06AC",
"i. c #9AD4538401B8",
"p. c #880A4542175F",
"a. c #84494A851444",
"s. c #8C8A4BA514D2",
"d. c #83ED43FA1AC5",
"f. c #8B85434F1B75",
"g. c #8C9A4BE31B27",
"h. c #98F148F31772",
"j. c #950843E51C4D",
"k. c #84D5546013A3",
"l. c #88BB56681800",
"z. c #97C2573F17FE",
"x. c #A72247940610",
"c. c #B7EE48F306F5",
"v. c #A8A0581D06A1",
"b. c #B90F55280624",
"n. c #A75948941829",
"m. c #B50B476E170C",
"M. c #A83B57CD1916",
"N. c #B6E957401937",
"B. c #89AE65F206BC",
"V. c #9765655D06ED",
"C. c #897C753203A2",
"Z. c #946E72410377",
"A. c #88CE66CE185E",
"S. c #981366FF1956",
"D. c #86D57765173B",
"F. c #983B764317FB",
"G. c #A73366740620",
"H. c #B3E266D30A3C",
"J. c #A770754805F4",
"K. c #A83566AE1929",
"L. c #B66466FF183C",
"P. c #A6E5767C172B",
"I. c #88CD47492762",
"U. c #84FC4B252BF1",
"Y. c #99E64706278C",
"T. c #93FC4C452476",
"R. c #93B04C3B2B3D",
"E. c #8812567927DD",
"W. c #97FA574424F1",
"Q. c #93B0542E2C58",
"!. c #9BB953E52C84",
"~. c #9BD85BBF2C2F",
"^. c #884748083784",
"/. c #9513440E32AE",
"(. c #99004883373B",
"). c #8AE556153732",
"_. c #98E357B8381E",
"`. c #A6D94726274F",
"'. c #ABE84BF22307",
"]. c #B6A848042943",
"[. c #A892575627E1",
"{. c #B682566527A6",
"}. c #A894498E37C7",
"|. c #B6E7488236FD",
" X c #A3D95CAE3446",
".X c #A9745639380B",
"XX c #A4685B913BD3",
"oX c #B56756A0384B",
"OX c #87BE675225AF",
"+X c #98B867F62657",
"@X c #92A963822BF1",
"#X c #990A74B4260F",
"$X c #891D68B3356D",
"%X c #987D664C35AD",
"&X c #8C81753A3427",
"*X c #A33061F12AD1",
"=X c #A88C677B2876",
"-X c #B5DC64862874",
";X c #A5BB76EC28A7",
":X c #B4A775A725CD",
">X c #A67268EC39A6",
",X c #B4CE668F36DC",
"<X c #B1FC761C3818",
"1X c #C5AB4A450381",
"2X c #C6C357E10858",
"3X c #CAD84D801492",
"4X c #C4CC587F1731",
"5X c #C85D732C1505",
"6X c #C40E470728C1",
"7X c #C5BE57A22847",
"8X c #D51655502ABE",
"9X c #C5E94980376A",
"0X c #C39F57ED36E7",
"qX c #C7406C2A2FA2",
"wX c #8B873796434E",
"eX c #9911366C4651",
"rX c #932E2F66528B",
"tX c #AFF93645491A",
"yX c #A04B21FB5180",
"uX c #C4242F814AF7",
"iX c #C2242E4552F0",
"pX c #8957491F45EC",
"aX c #984B49574590",
"sX c #89C8553F48E0",
"dX c #999B57BF4760",
"fX c #8BD5481154C5",
"gX c #967A4A945807",
"hX c #8C4E583B53C2",
"jX c #94EE554D547E",
"kX c #A8FC470B46B6",
"lX c #B53A4885484C",
"zX c #A87E57BA4635",
"xX c #B96E59254498",
"cX c #A5D34ABC5437",
"vX c #AED7525955E0",
"bX c #8A1B65074789",
"nX c #985066C64778",
"mX c #91E670044E53",
"MX c #A83765D445A3",
"NX c #B47E678E4357",
"BX c #A78976224609",
"VX c #A8C2662855A7",
"CX c #B42B71DC52DA",
"ZX c #9393506B641E",
"AX c #A13360E6650E",
"SX c #CA28506F4985",
"DX c #F0F84DC741FC",
"FX c #CAE46C884A80",
"GX c #72A991130E68",
"HX c #8F2483991380",
"JX c #B1B189701AD6",
"KX c #944883652FC8",
"LX c #A9C4881A2DBF",
"PX c #95DB83204C8F",
"IX c #9C45ADDA47CB",
/* pixels */
"h.dX .=X1.#XoXH.%X`.R.#.H.E.`.KX[.].dX4X X$XzX` K.V *X}.' #.D k & dXpX.X[..XzXg.SXV.].N.ZXXX=.N.~.L.%XN.tX9Xo. XpXW.M.^.0XQ.l.*X",
",X].lXQ..X}.K.e.].,X) W.'.4XP.(.#XdXn.2X(.v.I.tXp NX_.jXzX$XK.x 0 xX,.n.R.0XZ.lXF.}.5 bXA.lX&X7Xc.lX^.>.z.}.bXz.xXnX&.{.( qX-X7X",
"x.M.K.lXD.%Xx.pX=. Xf.{ ].%X^.aXMX@X) n.AX(.pX_.zXY.).SXk.%XI 0.T.K q.S.`.sX&XXX!.*.aX,.nXz.oXLX>X).xXm.n.U.cX_.$.V n.).XXhXaX0X",
"zX{.iX( L.h #.=X4XdXkXB 1.z.h.W.gXwXY.Z.C OXl.n.2.oXO.LXuXM.%X2 5.PXI.kXY.,.g.BXW.*X3..X|.R.FX-.s.iX*XhXe _.ZXDX(.%.) n.%XT.}.3.",
"L.S.BX*XpXR.xXn.[.C.T.,Xc.1.].E.-X:..X>Xg.sX X}.).XXc mXcX_.cXZ I.@X{.LX{._.lX[.P.oXW.,XI._.VX2.aXK.1X:XdXS.z.N.n.NX_.].`.oXE.<X",
"H.c.>Xh.hX+X>.e.&X:Xb.S.eXVXN.K.-Xm.VX_.>X+XU.+.2.z._ M.lXy a.2 E { P.gX4 #XmX&.8X}.VXxXaXl.zX1XS.(.) ) =.oXh./.z.( %X^.8XW (.+X",
"n.MXvXO.3.^.0X{.S.D `.[.zX'.-XP._.m.T.O.1XfXO.HXX.>._.^.k.'..Xr a {.>.%XP.-X,.cX].X.fXW.*Xx.+X.XD t.^.SXf.-Xx.W.h.>X(.z.S.U.L._.",
"z } 4 .XcX<.+X(.).>XE.}.|.@.}.H.:XXXz.kXbX|.rXpX[./.gXkX9Xk.W.l w.&XQ.t.W.F *XgXR.lXnXm.n.$.O.`.dX-X-X'.H.JXBX!.sX:.J.-. X}.g AX",
"s.z.L.kX=Xq.(.,XjX0X_.5X3.$.'.3.T.W.} }.j.zX!._.[.I.!.&X0X:XjX0 4X*.Y.Z.e.&.S.z tXx zX/ E.z.].N.'.hX`.9XtXNX) B @XU.XX] vXoX-X7X",
"e.aX~.dX$.|.{ jXA.dX$.fX8XtXH.pX~.{ oXBX<XM.p.tXxXM.:X$.SXyXvXl I A.*XS.- fX!.!.0X-.vX|.,X,X^.;XOXxX|.G.@X2 S.dXcXmXA.u.0X#.5.|.",
"zX5 z.*.M.oXN.a x.+X[.J.!.:.~.`.lX`.`.vXM }.;XVX; `.c !.z.y 1.9 8.L.zXu.o.5.j.;XdXn.zX'.*X(.VX).zXU.[.-XuXyXO.#..XtX_.$XpX+X>.z.",
"S =X|.-X~.wX).X.XXv.[.>X].E.*Xz ^.-XfX).FX{.z.j =X&X>XE.zXM.@Xu =.7XsX$.>XOXXX` $.XXL.S..X0XW.Y.xX].lXM.i y.m.S.(.,.m.{.dX#X@X`.",
"6X|.SXBXaXl.@..X] z.w.P.Y. .eXh.).`.SXM.#X|.#.'.' !.Y.;.,XAX` - u.D ) ).n 8X8Xm.m.1.v o.A.2.).#XV AXMXa C jXfX,X}.AX_.M.$X:X;X_.",
",X_.M.2 n.SX_.O.cXg.Y.mXoXB.@X!.AX(.)..X[.L.}.aXZ.aX*.dX}.$ n.9 W i H.G.{.K.o.zXtX XeX).@.qX#XE.m..XE.,X_.).{.g.-X:XMX[.NXX.!./ ",
"S.j.}.o.I.d._.gXoX{.h.l.6XSXZX%X/.NXXX[.1XtXN.W.&XI.u.$Xm.^.3XO a >.N.h.N._.n.}.dX~ %XgXoX>.` m.z.o.%XrX-X`.@Xh.,.dXaXY.D.h.z .X",
"< . l b = : #.= 6 B < b u # 5 s S E.p m A # n ( x 5 p r Z + p # 9 l +   S < ^ s i ..p O n 8 < 6 S n b p z c 9 o 7 > O < u p O l ",
"0 ( Z.C I W J 5.- #.z.y H - D ( 1 T.p.z.O.5 * o.I.+Xj V.)./ 5 x.Q j.n.`.( i.b =.E.R.u.i W Z.W ` ..& J t 4.a m.$ { ] v.W.+ + u.>.",
"5.% 0 B.I.[.#.v 0.Y + u.0 e.Y 5 E I >XB.z.P n.4 o.y.- y.9./ # W.K p 7 $ i s.6.) * e.W 4 %.).o.t V.T z.2Xk.-X% / s.W.B.$X3 E.v.h ",
"p.7 ] h { 5.A.`.z.~ 9.c.I.Y p R v r.u.x.U.a 1 U N.Q.i ; W.W.z.a = n.#.` P Z.U.- m.O 4.! w.V.4.B.P T.h.=X8 r.f g.t / 5.Q T.~ 1.@.",
",X7.i.l.~ Q 5.H.a v.^.& B.$ B.S.8.& n.m 4.%.e B.4.s.# D.u.5.n.z.J @ ( q.! } a B.#.E Y 5.J _ f.r R i u.D '.k.M.q B.l.P } `.c.# W.",
"f.r.@.P v.u f.A.p y u ..a r.4.! o.q Y.j.; z.r 2Xv I.# i = % v f +.`.E.` ( H.~ { A.0.T = I # 0.I /.B.E.w v v.H ].Z.I m.- w O.% r.",
"5.y - P I X.U W ! r.^.l.! v.#.1 HXf % $Xz p A.+X@ 5.E / z j.4.l x.'.% B.h.T.q.W.( i 0.Q e.-XH.u.M.2Xy +.t.+X$ ] % 6.P + y.n.1 6.",
"e I.*X4...' P ....x.( - ^.e B.# u.l.@ n._ Y - 6.d.y T.r h ! #.6.s I w.OX+ R T m k.T @ V 8.9.t z i.w.;.q ( I r.A.a !.$ + 9.o.0 r.",
"I / ^.#.# n X.Y.a !.d j 9X1 4.] k.^.v.K I H b.f.$ r - e a z.u (.#.n.y.s.0 % = a M.z.a i @ Y.I f (.e s.A.n.eX( 0 ..r.7.i.G A.C.X.",
"{ x.E t.t u.eXm.g J.s = h / 0.u U.z.' ..x.l.a s.w * > 8.S.v O [ e / m.x C.t.v x.$.i / =Xt ` I ` { i.q zX0 ~ a 2XB Q o.X X n 9.o.",
"W W a 7.O.J O.w o.*.8.| =.% V r.% T.y.h P F.M.#.y.^ v.p a R tXt | k 1.; H #.i _.o s.y.y ] q.V ' u U.5 U M.x 7.X X A.V.s.5.P q P ",
"A.w.Q { e y.L  XW T.l...R.y.- d R a._ #.C.x e / X./.- I { P ( @ 8.K.0.V.8.j.x.B.+X* q /.e Y A.L.v `.@ M.9.j.T zXw.f W o.` i.t p.",
"x # / ~ ) t F.u o.w.n t - ) K j 4.H E a X.$ u W ` Y c k.n.% ' ` j.f g - I o.% %. X_ u.s.` ) @ * ( y.B.Q.5 Q Q I.d B.u.i I G.^.P ",
"n.7.0.J.q.n @ X.aX8.e S.a.e.N.k u./ 7 S.= l.@.& f A d e q ..8.u.x g.Q : i a I.P.$ 8.` e s.u.T ! T.e 5.5 e u D.c.^ %.X.~ $ $ ( / ",
"1 U * Y y.w.+Xp E j.O.&.x.C Y / f ` K.o.0.y.! 9.+.J.i / 5.G ).v 0.y.7.; N.Z.] < 5.z..X*.$ ' &Xi ; P.X., 6.` * n r x.z m.Y @ Q y.",
"= d V *...V.8.I.}.T.w.y 5 x g.; 0 y $ Y z a e P S.a y.+.c.h.o.M.j s.Q p.m f.= _ e.h.P T.n.W / }.i.% ( T ^.7 7.g.u.# ~ i M.x 4.3 ",
"o O M p 6 9 k   9 9 n < , - 8 p # = , / % P k l a b o 5 p a & ^ 7 A O 8 > S & * 9 O < < B & > s o C v * 9 o 2 e A 5.S < l Z 8 6 ",
"_...M.| z.).-.G.` =X .xX:XkX<XS.0X`.3X|.i.].}.~.n [.W.R.v.R.>.< * e $.|.n.R.=.u.:.lXoXNX#.,XA.U.1X} 5Xa {.x.q.n CX..x.qX(.nXxX| ",
";.z.>X4XK.lXv.{.>Xs.MXY.=X|.] %X.XK.n *.kX].h./.A.:._.NX6X].bX: 1 ].mX2.$.OXSX_.v.Y.~ N.b P.LX:X*XH.xX!.lX%X=X+.0XyXzX-XhX!.,X%X",
"#XOX#./.kXV.[.-. Xx.nX2.vXz.M.bX}..XmXoXP.x o.mX(.K _.zX6.P.o.a A.{ (.sXM m.M.,X~.h.Y./ +X>XPX%XV.C #.BXf.eX6Xv.}.-.yXIXS.FX}.N.",
"n.l.O.wXC #XD BXz.# =XY.^./.Q.}.^.>.z.|.o.,Xn }.-X)..XW.[.tX2.9 +.K.zXb.o.>Xc.E.sXh.kX}.U.#.[.q.n.( /.|.Q.`.A.FX_.-Xc.VXW.x q.O.",
".Xn.rX].}.3.=X4.Y.K.F.W._.dXF.MXkX#Xk.A.^..X%.H.^ _.$X}./ v.KXN ` zX{.%XnXz.'.@X`.wXQ.%XsX- M.m.{.~.n w.v (.2.SXDXOX XdX1XjXhXmX",
"j.^.wX[.m.O.VX`.m.{.K.oXqXgX>X.X&XoX|.(.`.&X[.fXdXdXe.%XmXO.{.9 % ,X}.m.b '.6XM *.|.O.T.$.,.Y.Q.A JXW.~ ].#.tXv.`.E.2.rX|.mXE.4X",
"q.=XzX%XNXV.pXE.).K.v.VX .5Xo.LXq.*XqX XkXg { ,XXX].).yXvX}.3., t ~.eX].3X$ ^.&XPX~ ..nXn.}.L./.W.Y.+X*.u.( -X-.l.S $.zX) {.kX>.",
"M.*Xv.8.M F.A.n.,.}.tX'.M %Xf.U.SXn.jX*.KXh.%X}.c n.#.I.nX X%Xz = ^.0XpX[.+XO.7X| #.h.+Xn.^.` ,X}.W._.VX{.K.U { eXOX<XA.7XgXy /.",
"eXC M.M l.OXeXnX[.`.$.T.MX+XK.x.[.W.zXT.e.JX_.~.8XmX( |.W.vXT.3 P ~ @XW..XFXT.g. XfXE.BX] &X).zXk.^.x.@.zX=XzXSX.XD.` >.7X XtX#X",
"I.{.D.sX) i !.9X[. XaX,X-.Y..X%X2 U.N.|.n.qXF.^ %XO.}.`.R.`.( , ) s.w.sX!.z.Q.2XJX/.6X(.x 5X(.=X`.c $XkXoX}.U.=.`.l.~.$.M s.cX8X",
"*X0X}.{.OX{.dXT.=.$.$.h.s.&X| 4 _.iXl.&X! n.OXI.R.,X).I.;.x.{.2 8.W.KXV ].{.(.' -.M.a vXR.JX&Xo.5.&.}.@.= hX,XT./.hX(. XjX8XM.sX",
"_.' h.>XbX]. X>Xa N.*X^.GX].,.N.'.2.m.>.'.l.%XmX9.[.Q dXq.A. .b = }.A qXkX=.OXN./ x.).yX}.M  X[..X|.n rX5XbXeXoXQ.kXdX&XVXj 1.$.",
":.R.Q.&.lXMX#.zX{.:X@X>XOX).Y.pX$.q.F.oXF.k.>X-.(.wXaX`.).j.oXo 9.aXdXU.:.}.(.O.BX).9Xg.C OX%Xv.Y.#.A  X@XQ.~..X}.bXdX_.:XW.N.dX",
"(.m.Y.xX`.CX$.k..X#.zX=XyXI.Z.@XdX[.{.U./.[.nXx.I E.L.~.n.E.[.z v aXkX0X3XkX%X%X+.hX{./ pX).pX7XM.!.oX5XO. Xf.u.3Xu.A.BXI P.cXsX",
").kX_.!.A.bX) sX!.{.v.*X[.u.$XT.oXgXi bXl.&X+Xx.] W.L.,X(.OXi.7 @.I.`.dX^.^.)./ h.I.A $.'.S eX:XK.$.qXSXA sX,X[.#XSXI.$.|.} _ l.",
"m k b = l O Y.7.: u X n n u F s., , k < h = B o & i C o.z c o J & & A z p b O   f p p i b & l.k : 9 N B 8 b s - 7 c - d o x N = ",
"+ - g P k.2 w # XX^ [.$X@Xd.n.7.v.V # p ` u l./ p.a o.w _.z.w ; _ n./ y U.G Q t.i./ $ x.n.I / a.7.x.9.T.E D.y B X =.+ !.g.+.Q E ",
"V :.0 8.# % W.- u.3 ].z ! % I.`.I z.,XI.R P i 0 ) % / o.X.0.J ].a P z.8 8.U.-X@X~ ..A.x.k.x.A.0 W a G.J.g.%.q.T.e ` o % U q.- [.",
"( >.O r - { $ i = ` a.T 5 Y 5.a.x E.5.3 ].'.7.# 0 u.4.Q > o.D.+XX ^.Y g.S.v.- A.o.e K.9.( t % u.X.} i B.Q v.i.U u i.s.T &.e 3 O.",
"$ j.e U _ > ; z.d.3 # y z.`.! 2 G.@ $.o.! d t } #.v.].i | o 8.w./ ,.j.e E.p U ] # n.I 4.* [ w G.$.G I ) R.+.e ).u.+ q L.v / w.O ",
"i [.c.I OXO...u > 6Xa ..u q...g.I.^ n / #.` 0 e.2 0.n.( ^.I 1XE /.% x.% =X4.../ K q G.$ !.G 6.) 8./ x.,.{ '.W./ f W.U ` i f s.i ",
"v._ K ^ 1 _.y.m.= o 4.p.O.I y # $ ) # z.V.@ }.M P '.h.p o.x X.% y.6.W.w.d.P a P >.y o l.i OXV - 0 c.1 r.a v u.f f 2 y v.8.Y p $X",
"z.7.n b.X.x.A.g.n ].} { L ) l.] = c.s.> r ( w.o.Q r.t u _ m I - K N.+ x.) I ! $ u Z.u f G.~ / 0.y j I v.y.T.o.1Xe v [.h.x , A.v.",
"0.S.- e !.x I.f.B.w a ' i y.! v.% q.Q I.v 1.4.V.$ w.Y ~ - e # - ..L x.- n.i OXR b.e ~ '.R @ 5. .! g.{ % l.Y.E + F.`.u.g ; L.t.o.",
"n.w.(.7.q.! T.Q 7...P ) E e.U T.z.6.4.3 ! X T 1 5 v.I e.o.Q % o.= O.2 s M.~ x.u #Xa !.x U.j.h.S.x.t c.s.( H C.| X.% e i = G / 5 ",
"e i @X0.R [.G.$XV t.P K y !.].w ) z.% z.u.* W f u w @ C.$.4.8.- q r.] / v.R n.i y V B.K I p I / z.O.0 { 9.v.H x.~ ' u.~ e Y g.9.",
"$X- [.2 * o.) x w f.- b.U e , q i ] S.u.{ 1 bXA.v wXY.m.w.w g.& u <.'.~.I.1 I.B.i p.5.a.9.g * 0 d.c b.3 %XU x.x.p 5.r.y i m.# G.",
"A.y t.J.W., U ^ v.] T.] = I .Xz.k.d 2 Q v t.- cX3 h.5.Q ; h.5.v D.^.D.~ Y 7 i @ j 8.w.) * % o.y.w l.y & `.].<X} N.a H > 8.6.p.7X",
"U e ~ ^.f.8.~ n x.Q a ] v + - s d.- %Xq.=X..I - H X.Y.~ { U m ( ^ $ & -X/.t 7.x.; ! q N.0 ^ / h.I @ x._ * T s.E * T..Xn w 6.& i.",
"z.] q y Q y e x }.' 5 z.K '.t v.i.- M.P I.;Xz e.@ _.% R.P I.L g.i.*.h.#.`.u.V.2 i 3 l.e g.B.^.w.{ GX- / p C.P j.x.a { E $ R w.pX",
"o.k.) w.a 5 i ! ; S.`.E a r 4.u R E.t.I q G.0 V Q h.h.V.n.p n.Y P G ` y.o x.M.5 /.) q E M W 1 v.6.oX( n.g.x & y.E.d.w u R p 3 u ",
"t U - *.s.9.Q x.! x.h.C.h ).n.$ #Xu.q s.% - ..R { u.g.{ ^ / P S.V.J # k.$.A.A.+.N n.t ` 5 d HXR W.(.9.h.i w.b.i c ) J j L K 3 W "
};
