/* XPM */
static char *ciel[] = {
/* columns rows colors chars-per-pixel */
"27 32 134 2 ",
"   c #FAAC7D",
".  c #7A96F2",
"X  c #7E99F3",
"o  c #D5B18F",
"O  c #D4B291",
"+  c #D9BE94",
"@  c #D1B298",
"#  c #DD8CA4",
"$  c #C192BD",
"%  c #CDB3A2",
"&  c #C6B4B4",
"*  c #DFBFBA",
"=  c #F5A5AB",
"-  c #EBBBA2",
";  c #E1B6AB",
":  c #F1ADB5",
">  c #DBC396",
",  c #DFCC97",
"<  c #DBC59A",
"1  c #DECC99",
"2  c #E0CF9A",
"3  c #FEC89A",
"4  c #E2D59C",
"5  c #E4DC9E",
"6  c #E7E09F",
"7  c #D8CCA7",
"8  c #DCD3AF",
"9  c #DFDCAC",
"0  c #CFC6B7",
"q  c #D7CDB7",
"w  c #DCCCB2",
"e  c #D0C0BD",
"r  c #D1D3BF",
"t  c #DDDCB9",
"y  c #E5DEA1",
"u  c #E7DFAC",
"i  c #FFD2A5",
"p  c #F9D1AE",
"a  c #EACCBD",
"s  c #E0DFB6",
"d  c #FBD6B0",
"f  c #E6E0A0",
"g  c #8C9ADB",
"h  c #A293D4",
"j  c #A39EDF",
"k  c #BFB6C5",
"l  c #B9A6D1",
"z  c #BBB7D0",
"x  c #B9BBD8",
"c  c #839AED",
"v  c #8C9CED",
"b  c #839CF4",
"n  c #899FF3",
"m  c #8FA7EE",
"M  c #9AAFEF",
"N  c #99B0E7",
"B  c #9AB1EB",
"V  c #8AA1F5",
"C  c #90A6F6",
"Z  c #94AAF5",
"A  c #9AADF3",
"S  c #96ABF8",
"D  c #98ADF8",
"F  c #9CB1F4",
"G  c #9EB1F8",
"H  c #A1B5EE",
"J  c #A7B9EE",
"K  c #ADBFEC",
"L  c #B1B9E7",
"P  c #B9BEE4",
"I  c #ABBBF1",
"U  c #A2B5F9",
"Y  c #A6B8FA",
"T  c #ABBCFA",
"R  c #C396C0",
"E  c #D2A7C7",
"W  c #EDBDC1",
"Q  c #BCCEE6",
"!  c #B4C2ED",
"~  c #AFC2F3",
"^  c #B2C1F4",
"/  c #BDCAF6",
"(  c #B4C3FB",
")  c #B9C7FB",
"_  c #BDCAFB",
"`  c #CEC4CC",
"'  c #DFC6C1",
"]  c #D5D6C4",
"[  c #D9DAC9",
"{  c #C5CCD3",
"}  c #CAC8D3",
"|  c #C0C9D9",
" . c #D7CFDC",
".. c #E0C8C5",
"X. c #E9DCD1",
"o. c #EFE0CF",
"O. c #F4F1DF",
"+. c #CCCCE5",
"@. c #C2CFEB",
"#. c #C5D1EB",
"$. c #CAD4ED",
"%. c #CFDBE9",
"&. c #D8D6E7",
"*. c #D3DBEB",
"=. c #DADBEA",
"-. c #C1CCF4",
";. c #C1CDFB",
":. c #C5D2F3",
">. c #CBD6F6",
",. c #CFD8F5",
"<. c #C6D1FC",
"1. c #CBD5FC",
"2. c #CFD8F9",
"3. c #D0D7F2",
"4. c #D5DDF6",
"5. c #D1DAF8",
"6. c #E2DFE2",
"7. c #DFE6E7",
"8. c #D7E2EF",
"9. c #DDE4ED",
"0. c #D7E0F5",
"q. c #DBE3F2",
"w. c #E1E7E7",
"e. c #E3E8E6",
"r. c #EAEEE6",
"t. c #E1E6ED",
"y. c #E5EAEC",
"u. c #EAEEEA",
"i. c #EEF2E7",
"p. c #EDF1E8",
"a. c #F3F5E5",
"s. c #F6F8E4",
"d. c #E0E6F0",
"f. c #EDF2F9",
/* pixels */
". . . . . . . . b b . . . . . . . . . . . . . . . . . ",
". . . . . . . . G F . . . . . . . . . . X X . . . . . ",
". . X . . . . . V n X . . m K m . . . . X X . . . X . ",
". X . X X X X . c . X X I 9.a.e.B . . V :.>.m . . . X ",
"X X X X X X X X X X . b _ u.u.s.%.b X B 0.f.~ . X X X ",
"X X X X X X X X X b C ^ ;.5.5.q.7.B X m Q %.F X X X X ",
"X b X b b X X b X C ;.9.3.5.4.4.a.@.X b N N X . X X X ",
"b X X b X X b X b D ) d.p.y.t.u.u.J X X g g X V X X X ",
"b X b b b b b b b Y ;.4.u.a.a.s.i.*.F X c c b X V X X ",
"b b b b v j v b C T 4.u.a.t.>.4.i.a.#.b b b b b X V X ",
"b b b c R = E v U T 2.p.i.:.( ;.q.i.7.A b b b b V X X ",
"n b b v R = : +.:.-.;.y.9.) 5.q.p.a.a.7.A b b Z D V V ",
"b n V b h # W a.s.t.T -.4.4.u.4.i.a.a.a.%.Z b Z G X V ",
"b n b V G l -.4.y.a.-.T _ 4.d.i.a.u.0.p.a.~ V V V V V ",
"V b V D ) x ;.1.4.a.y.-.-.5.y.a.i.q.1.2.p.$.V V V V V ",
"V n C Y ;.;.<.2.u.s.i.d.a.y.4.u.u.5.0.q.0.e./ V V V V ",
"V V S ( ;.<.( >.d.p.0.4.p.a.d.1.9.p.5.2.1.d.t.J V n V ",
"n C U T ) / ^ _ 2.q.2.5.q.a.a.4.0.a.u.5.1.1.t.r.U n V ",
"V C T _ 5.r.y./ _ <.2.d.p.p.a.9.5.u.O.p.2.5.y.u.@.A n ",
"C S _ 1.0.p.y.t.;.<.5.p.q.5.p.p.9.' p o.2.d.p.a.s.$.V ",
"Y Y ) <.2.0.q.i.q.2.1.5.1.<.5.t.X.- i d &.q.u.s.a.*.T ",
"Y T ( ;.5.p.a.p.q.d.d.2.( ) 1.q. .; 3 p &.d.d.a.d.5.u.",
"T ( _ 4.p.p.p.0.4.9.a.y.-.T _ ( ) *   ..4.d.u.u.5.1.d.",
"T T ;.1.u.t.5.0.p.5.u.s.q.:.) Y _ w.q =.d.i.a.u.4.y.p.",
"T T ( ;.4.u.5.5.q.0.u.u.2.y.e.~ ) *.} t.d.u.s.a.a.a.a.",
"T ) ) ;.<.5.4.0.2.y.p.2.1.9.i.$.Y ( _ ;.2.d.a.a.i.d.q.",
"Y T ) ) ;._ <.5.1.2.3.+.` w u s } ! T T T <.d.q.:.1.5.",
"T T T T ( T P } * q 8 > + + 4 5 f y r | K ( ;.T ) 4.i.",
"Y Y I L z & @ o + > 4 5 5 4 < > 2 5 5 4 7 0 ] { ! 2.4.",
"E & % @ O O o + 2 < > 2 > 2 > + + + > O o o 2 5 u s [ ",
"O O O O o o o O > 4 5 5 4 > > > 4 4 2 < 2 > > > 2 y f ",
"O O O o o o O O + 2 y f f 6 y 5 5 f f 6 f y 5 4 4 y y "
};
