/* XPM */
static char *metal_panel[] = {
/* columns rows colors chars-per-pixel */
"32 32 4 1 ",
"  c #888888888888",
". c gray66",
"X c gray69",
"o c #D8D8D8D8D8D8",
/* pixels */
"ooooooooooooooooooooooooooooooo ",
"o.............................. ",
"o.............................. ",
"o.............................. ",
"o.............................. ",
"o.............................. ",
"o.............................. ",
"o.............................. ",
"o.......XXX...........XXX...... ",
"o.......XXX...........XXX...... ",
"o.......XXX...........XXX...... ",
"o.............................. ",
"o.............................. ",
"o.............................. ",
"o.............................. ",
"o.............................. ",
"o.............................. ",
"o.............................. ",
"o.............................. ",
"o.............................. ",
"o.............................. ",
"o.............................. ",
"o.......XXX...........XXX...... ",
"o.......XXX...........XXX...... ",
"o.......XXX...........XXX...... ",
"o.............................. ",
"o.............................. ",
"o.............................. ",
"o.............................. ",
"o.............................. ",
"o.............................. ",
"                                "
};
