/* XPM */
static char *stone_wall[] = {
/* columns rows colors chars-per-pixel */
"32 32 6 1 ",
"  c #444444444444",
". c #555555555555",
"X c gray40",
"o c #777777777777",
"O c #888888888888",
"+ c gray60",
/* pixels */
"                                ",
"oooooooooooooooo ooooooooooooooo",
"ooXXXXXXXXXXXXXo ooooooooooooooo",
"ooXXXXXXXXXXXXXo oOOOOOOOOOOOOOo",
"ooXXXXXXXXXXXXXo oOOOOOOOOOOOOOo",
"ooXXXXXXXXXXXXXo oOOOOOOOOOOOOOo",
"ooXXXXXXXXXXXXXo oOOOOOOOOOOOOOo",
"ooXXXXXXXXXXXXXo oOOOOOOOOOOOOOo",
"ooXXXXXXXXXXXXXo oOOOOOOOOOOOOOo",
"ooXXXXXXXXXXXXXo oOOOOOOOOOOOOOo",
"ooXXXXXXXXXXXXXo oOOOOOOOOOOOOOo",
"ooXXXXXXXXXXXXXo oOOOOOOOOOOOOOo",
"ooXXXXXXXXXXXXXo oOOOOOOOOOOOOOo",
"ooXXXXXXXXXXXXXo oOOOOOOOOOOOOOo",
"ooXXXXXXXXXXXXXo ooooooooooooooo",
"                                ",
"oooooooooooooooo ooooooooooooooo",
"oooooooooooooooo ooooooooooooooo",
"ooo...........oo ooooooooooooooo",
"ooo...........oo ooooooooooooooo",
"ooo...........oo ++++++++++++ooo",
"ooo...........oo ++++++++++++ooo",
"ooo...........oo ++++++++++++ooo",
"ooo...........oo ++++++++++++ooo",
"ooo...........oo ++++++++++++ooo",
"ooo...........oo ++++++++++++ooo",
"ooo...........oo ++++++++++++ooo",
"ooo...........oo ++++++++++++ooo",
"ooo...........oo ++++++++++++ooo",
"oooooooooooooooo ++++++++++++ooo",
"oooooooooooooooo ++++++++++++ooo",
"oooooooooooooooo ooooooooooooooo"
};
