/* XPM */
static char *stone_wall_64[] = {
/* columns rows colors chars-per-pixel */
"64 64 256 2 ",
"   c #197D2D6F0294",
".  c #31212DB314C3",
"X  c #371116813203",
"o  c #1C4D34053411",
"O  c #30DC31CA3011",
"+  c #37933722390A",
"@  c #4DF731C11C39",
"#  c #523F16DE35FE",
"$  c #716F18FD344F",
"%  c #50C42E9C2CF2",
"&  c #48532B643C46",
"*  c #46EC38C337BA",
"=  c #58A6398436FE",
"-  c #6B47351F32C2",
";  c #2B9148A41CE9",
":  c #15534A972D25",
">  c #377146062A54",
",  c #395148283969",
"<  c #2C244FEA30C9",
"1  c #39CC568F3825",
"2  c #39F666683A70",
"3  c #358573EC36FF",
"4  c #500A4BBD1ABD",
"5  c #5B8465901C4F",
"6  c #47A8476228F0",
"7  c #55B146E82864",
"8  c #4991577229E7",
"9  c #593D57DE28F7",
"0  c #479147B838C3",
"q  c #56EC489039A3",
"w  c #47D956DF393C",
"e  c #564F576D38A6",
"r  c #65B14B87298E",
"t  c #666647693926",
"y  c #74534B1734E9",
"u  c #666157A43B3D",
"i  c #75A1595F39EC",
"p  c #45CB674F381F",
"a  c #589F6538391D",
"s  c #51C47395375D",
"d  c #66B367B43722",
"f  c #6B5E6FF2338E",
"g  c #397018714B20",
"h  c #1E5A1FA85441",
"j  c #2F802ED94F39",
"k  c #293539C748E1",
"l  c #37DD3857470C",
"z  c #388E3A105AA8",
"x  c #337B33B96AA8",
"c  c #4B8913874E24",
"v  c #5E8B1B765C60",
"b  c #465F28A0443C",
"n  c #592B2C0247BB",
"m  c #485F382F47B6",
"M  c #589D38A64852",
"N  c #4960295959C2",
"B  c #55F12ACC599C",
"V  c #4967395C5782",
"C  c #57A939615814",
"Z  c #658639BC474B",
"A  c #653138485760",
"S  c #726E333952CE",
"D  c #4934292D6689",
"F  c #492639CA682A",
"G  c #56E73855682D",
"H  c #529837D570CC",
"J  c #6C1132386D94",
"K  c #67BA39E9681A",
"L  c #168C51A65281",
"P  c #19525A655E7C",
"I  c #26C645B0466E",
"U  c #378548B446DF",
"Y  c #2AF457EB4658",
"T  c #384D57E64775",
"R  c #27144DFA57F6",
"E  c #392948865875",
"W  c #3BA956ED5679",
"Q  c #29576B914755",
"!  c #385E64FF47C9",
"~  c #3B6077714943",
"^  c #2814667F58F2",
"/  c #3BC7668D5A07",
"(  c #36F27824591F",
")  c #2F214DD86DB9",
"_  c #39A947CE6777",
"`  c #397056C668E6",
"'  c #36B755427734",
"]  c #395B682C68DF",
"[  c #391B75636896",
"{  c #386F6C6E7654",
"}  c #476948634892",
"|  c #583A48DA486C",
" . c #4819575A4961",
".. c #564E57874811",
"X. c #46C948695793",
"o. c #578B4724569F",
"O. c #5B6B4CE75B05",
"+. c #487757A15741",
"@. c #533D5CCD53BE",
"#. c #57CB5688581B",
"$. c #66AA495F4853",
"%. c #757F47764861",
"&. c #676557994703",
"*. c #76FF593C4A64",
"=. c #667949D75830",
"-. c #761649E6591C",
";. c #67FD583A5893",
":. c #74EE56B357B9",
">. c #497B668547DD",
",. c #582766C4483E",
"<. c #481074F846B4",
"1. c #57F578074B10",
"2. c #490D66B75827",
"3. c #59AF662F581C",
"4. c #4B247A965830",
"5. c #575676825A3B",
"6. c #656D679649BD",
"7. c #77BF688847E5",
"8. c #6A7277194ADD",
"9. c #77CA77A947FE",
"0. c #676867F95854",
"q. c #758266DF583F",
"w. c #68B3760B5839",
"e. c #767377C859DA",
"r. c #47EB4925669C",
"t. c #56B0483167F4",
"y. c #480F581768A5",
"u. c #580D58036731",
"i. c #47C645E0770A",
"p. c #5A324A63772F",
"a. c #4A4E5A4D779F",
"s. c #57E357B47750",
"d. c #66FA48C466E7",
"f. c #791B487467CC",
"g. c #682D59486725",
"h. c #7646598067B4",
"j. c #66184AEE75D7",
"k. c #75144AC677E1",
"l. c #67AA574F7707",
"z. c #763656DB796E",
"x. c #4874662A6839",
"c. c #5817675967A3",
"v. c #485C76FD6797",
"b. c #57E376D266FA",
"n. c #49D36668788A",
"m. c #57DB68027641",
"M. c #46EE776C758E",
"N. c #58B1760276A8",
"B. c #6660680D66DB",
"V. c #77726726667B",
"C. c #685176626818",
"Z. c #7759789767DF",
"A. c #69A768B67714",
"S. c #77AB69E97817",
"D. c #6A1D79247765",
"F. c #78427838770A",
"G. c #8C7F64B632BF",
"H. c #88F333374CCC",
"J. c #99443D006555",
"K. c #846F57EB49D5",
"L. c #8A1048C154ED",
"P. c #868A56B359CF",
"I. c #87D4670859BA",
"U. c #887E76E356C9",
"Y. c #902774775081",
"T. c #8B2755A26E8C",
"R. c #854967A166C0",
"E. c #850E77086741",
"W. c #96AD76A36A43",
"Q. c #860E685C77FD",
"!. c #954165557633",
"~. c #862F764A784A",
"^. c #943F788676AE",
"/. c #A9055FE96856",
"(. c #AB246CD97505",
"). c #3479849F36A5",
"_. c #4E4687F63648",
"`. c #68E58C503A2B",
"'. c #36AE82346B8B",
"]. c #516C8B104ED3",
"[. c #59DE89865839",
"{. c #6C7583E34925",
"}. c #66D686DC598B",
"|. c #731B8D9D54AD",
" X c #5D6FB7DE5895",
".X c #477684356678",
"XX c #5A74882F68E3",
"oX c #504B90C16EEF",
"OX c #590C863775E2",
"+X c #66BA84EA6755",
"@X c #783C854F67C8",
"#X c #777B9826677D",
"$X c #687D84C9774E",
"%X c #788486FC77CC",
"&X c #68EA9604775C",
"*X c #7153981A724E",
"=X c #75ABA43D6F90",
"-X c #80AC86533382",
";X c #8B79873B5354",
":X c #820A897E69E7",
">X c #870D865C7876",
",X c #904D8D22744D",
"<X c #AAB48D617272",
"1X c #8E2CA8367111",
"2X c #A07EA3F16B6F",
"3X c #3C373611893E",
"4X c #39B1512E87FD",
"5X c #37356ABB8786",
"6X c #53014D2787C5",
"7X c #588A56808578",
"8X c #70AE4ED88B30",
"9X c #671457DB8719",
"0X c #7646550285C0",
"qX c #52126CA88F08",
"wX c #5704772385DE",
"eX c #668566B68591",
"rX c #75E56743863F",
"tX c #66AD77868594",
"yX c #741F77F286FC",
"uX c #6D7B6C0796FB",
"iX c #795A798F9799",
"pX c #52ED52E7A465",
"aX c #61AE5D1CA9E8",
"sX c #63C067F6A82B",
"dX c #6E177458A7B8",
"fX c #927E501986AB",
"gX c #87AB698585A2",
"hX c #884976B48862",
"jX c #92BF703C92E3",
"kX c #963974C59B3A",
"lX c #AA7B73938BFA",
"zX c #92957524A7A8",
"xX c #AB7379E4AAB3",
"cX c #59AF85F9871D",
"vX c #55FD91148F4B",
"bX c #68AE86F28825",
"nX c #73998FF18F03",
"mX c #785BAB2297E6",
"MX c #78B29041A9F6",
"NX c #8558886D8707",
"BX c #917490728EF8",
"VX c #96C49A5D8A8B",
"CX c #8AE4989195E6",
"ZX c #AB7590CF9111",
"AX c #930AB1228BA2",
"SX c #9A7BAA4B9950",
"DX c #AA49AA9595C3",
"FX c #919A9189AD09",
"GX c #AEA69176AB8C",
"HX c #9695AD01AC0C",
"JX c #AE6CAAE4AE5A",
"KX c #C67DA254A34A",
"LX c #A206CDDA9BA7",
"PX c #B1389590C50C",
"IX c #9422A8FCC983",
"UX c #ACA7B52BC4ED",
/* pixels */
"[ z 7.=.= I R O.7 @.I X.x V - A * ^  .t.-.y.B.&.;.x.P.A.A.}.f.;Xc.0.cXB.CXtXNXaXjXBX2XnXkXlXFX>XHXFXFXxXKXPXGXJXDXJXlX*XZXCXZXMX",
"a O.^ O.c r T # U Y i O h } $.V O $.< T ;.h c.F.P.eX' h.~.<Xn.+XF.d.B.hXS./.q.aX:.!.1X;.nXAXDXBXHXZXVXAX2XAXSXlXZXDXLXCXDXSXDXbX",
"] b.s., t.| @.+.W =.] ` } ;.( | X.e V.-.c.J #.V $.w.R W x.oXn.nXh.C.V.tXnXx.tXiX9XuXjXS.iXNX(.~.:XnXCXFXCXHXGXJXAXKXxX<XZXZXMXkX",
"+.x U [.j =. .k t.o.* q X.a.t.n.d o.i =.A.r b u.f.o._ } w.d.yXeXL.B.Q.=.0.jX7.>XY.iXgXjXjXlXZXVX,XHXlXSXGXFXBXGXFX<XGXBXAXHXbXzX",
"7 x.p...=.q.q.V.@.#.,.D n ^ =.;.* q.#.T +.;.} [.3.g.o.1.3.eXp.cXU.|.nXqX{.7.:.q.V.I.A.T.A.wXO.Z.vX7Xl.0.nXz.b.Z.#.hX^.:.AXkXkXMX",
"V -.y.y.i.3.~ q y g.y.3.4.i.= x.A.;.g.=.s.&.5.k ..u 9 *.8XA.;.K.6Xb.&Xe.@X%X|.h.bX#XT.kXC.p.9X0X:XS.A.E.;X8X%X0XR.$Xq.,Xb.FXiXdX",
"c.e g.*.=.1.z m n G 3 =.>.>.o.U bX| l c. .H.C.] a.g.u.T w.G l..XOX;XV.V.b.|.S.Z.yX[.Q.p.$X8Xy.u.e.A.l.;.:.R.,.C.m.yXA.vX9XnXdXZX",
"&.o./ ^ c.>.X.g.d.| #.U r.f n -.e 0.2.d ).3.B 2.s x.2.a &...g.0.h.V.b.T.}.h.C.hXE.D.S.S.rX&X^.wX].0X$XC.:XC.+XS.zX^.OXq.U.FXVXHX",
"| q L.S W , C p.u.]., X.C.' T r 5.,.` 6.+.,.-.} 0.>.a & O # 0.g.Z.v.C.sXuXm.*XQ.6X~.!.tXV.hXz.V.A.sX5.yXw.W.F.wXfXZ.g.OXz.VXFXCX",
"| d.6.a q.6XW 7 2.#.h.@.y.1.J U = I K.W #.u M &.* =.o.W +.@.N.BXt.*.OXF.%XN.V.lXe.hXE.C.O.gXc.aXy.wXA.gXjXeXp.A.5.4Xf.F.^.VXkXIX",
"0.2.9 M :.2 < c.V 9.t.4.$.D *.x d.8.>.3.6.d._ b.p t =.) Q O.#.$.I.] ~.k.XXm.M.U.:Xt uX*.cXgX,XW.$X{./.5.j.S.^.$XqX%XT.=XP.GXSX2X",
"-X5Xq r.` a z.3.( F r.| y.5.~ W 9 W E C.k [ r.u.] b.b Z 6.0 *Xc.y.-.C.q.n.d.uX5.V.D.f B.D.*XF.wXOX^.eXz.v.V.OXE.q.q.Q.%XNXVX,XjX",
"o.D.m %.G.E 0 _.| e t.t.E 3...- W g { O.n w <.g.c.] 7.l.&.=.p.C.<.w.F.S.eXF.w.6XuXu.F.m.}.C.C.s.c.a.I.~.D.;Xw.A.W.%Xq.sXA.kX~.nX",
"...Xd.| a z = B } n E O.w ;. .v.+.0 W Z 1.B N ,.<.e..._ R r. . .b.l.~.A.S.wX@X>XS.:XV.%XV.e.z.7X*X#XB.U.oXXX3.f.8X>Xg.U.Z.mXCXnX",
"z.} V 3.g.C ~ u.8X6 &.M }. .- o.K H a j.x j.} ..n.C K +.n.x.-.1 ..r.h.F.3.A.0X+X9Xa.vX2.(.V.V.F.z.9.yX~.g.w.b.C.F.U.S.NX#XNXnXxX",
"t.8.;.U X. .2.` 5 ' ^ eXP V #.,.*.x.f.+.1 R ! =.g.6 t ,.| 0.e ..2 Y !.8.x.iXY.S.>XbXn.qX3.W...bXZ.Z.%XW.9.i cXOXA.uXC.z.P.%X<X*X",
"a.H } u.z a.C g.2.j t =.y.Z w.7 x } z ,.X.%.q. .W f &.r s.>.| C ` +.eXA.I.E.lXA.F.t.E.!.S.A !.!.+.V.w.l.hXgXb.@Xb.c.$X.X$XF.kXCX",
"} } / t.2.[.,.d.y.&.] 2 t.M +.M 2.B.+.O.;.W #.s._ q z  .9 x.O.% r.3 v.e.=XoXC.c.1.W.R.C.;Xg.z.F.~.C.~.D.A.Y.A.bXvX}.=XuX' V.jXN.",
"w.:.).=.u.a.#.w 3 B.k.g.X.;.b.5.s.0.c.1.C W %.& +.r m ~ K 0 ,.F &.0 A.l.B.wXeXe.@XI.R.uX(.c.$XD.iXeX9.bX7X+X9.-.}.#XvX~.0X{.nXS.",
"R.|.y.v.w 1.J ;.,.$.r.f Z n g.o.u.! , y t.#.t.X.T N m.2.S o.r.%.V _ +X{ T.Z.%XU.A.E.6.A.b.D.yX%Xb.N.b.,XuX}.:X3.bXh.F..Xf.D.[.Z.",
";.c.D .. .s d.+...;.- d f u L +X] *...6.S.J *.0 } - K.~ o.r.o.%.i 0.5X=Xw.eXJ bXfX~.&Xb.9XD.e.7.gX@X3.|.e.}.k.,X].hXbXD.e.t.h.F.",
"r.bXe ;.s =.4Xb.d.f ..0.&.` r.$.[ ..K.P.9 x.6.g.+.I.8 , ,.X.A H h.U a mXC.Z.+XnXS.vXu.R.*XvXE.=XF.+X8.wXvXG.S.t.C.eXz.^.:.cXn.A.",
"u.n.a.<.w @X%.y.q.V N.+.@.>.$.s 6.qXP w.s.&.0.F N k X.x h. .w.0.3.L.;.tX].p.nX0.bXQ.Z.&XA.CXw.$X0.|.v.0XwX$XO.~.R.[.XXB.eX6XD.S.",
"r.8X).w 1.2.E a #.g.8 >.;.x.c T V ` F.G x.1.B ].s.T c.s._ ( 2.-.k A a.~.{.Z.m.@XyXS.n.W.R.5.W.c.:.=Xh.eXm.bXbXm.A.d.V.z.wXP.Z.u.",
"g.o.C m s ) e.R z | } q.<...y.B.u.J...d.t.w E 7.i.+ e.#.0.F v.@.}  .!.W.s.I.I.D.) g.[ |.0.uXe.5.OXA.~.S.bX;XT.D.bXqX>XQ.b.XX/.K.",
"6XJ ,._ =.+ s.m.+.X.X.c.U.<.:.+ q ..&.-.f.u A.4X^ s U.*.g.b >.+.f.X.f.!.jXI.6.nXfXD.R.mXV.B.qXtX&X^.z.D.V.7.0Xk.:X@XV.z.bXR.C.;.",
"X.k.` t.p.q 0.= ,.u.c._ 6.p } #.0.U p.$.k.u.X.&.D.+.o.V a 2.j.M m 0.A.yX>XA.A.E.e.cXx.>XlXA.U.e.w.z.V.gXh.bXuXuXc.D.eX#X{.8.tXn.",
"$.0.W ! c.o.Y X.b.3.} 9 v.;.c.d.d.[ F O.@.i.@Xt K +.@.6.` c.| =.N 2.t.Q y.i.<.= >._ &.O.$.p p.0.u #.W P.n.N.K Y =.W t.h.u K H ..",
",.s.G 2 q.R c.U.o.u.Q.< b.H %.q +.p I %.C.e L.a ,.k = ;.d = =.0 0.h./ u H ! X.V l l - :.g.$.y +.u.w :.| f 8.q n.f L.A.@.A.F c.=.",
"x.g.d.].0.{.C.e.m.0.+.n.3.,.Y.H ` d.;.a w.F.w | b.d.< K , | y.9 | j.q ..h B.p y.Z D 6.M +.n.y.c.0 %.:.&.1.E a w *.O M w.O.0.t.>.",
"d.7.k.t.i 8 &.).2.F e.T.#.d.7X0.6Xn.b.t  .e O.x.` +.X.! @ ;.l Z @.o.1 =.i.*.K.X.;.>.Q K.L.t.q g.+.s.0.7X% g.>...x.].o.x r.+.#./ ",
"B p.U u.- p.s ;.} #.-...c.z.b.V.u.a c.Y.| } _.B.) } b i.2 } } P., ..w 7 ..u.A u g.V s.3.r.%.../ 6.| u.1 4.,.C s..X@...m } 1 a m ",
"U +.t #.>.V x.G {.A.S.d.l.0.0.4.B.Z.&.| B @.0.n.@.K $.q._ 6.E | ].& n T | j W r.} d 1.pXA } w r.7Xe 3.V.t.,.&.m.( 6Xy.&.T.T ,.g.",
"G k =.O.s a.p.x a _ O.u.p.+.* 5.#.V.A.V 0.=.4Xt V x.* >.&.&.z 1 <.;.`.'.y._.:.+.3 w.F } i.f.} j.x...2.$Xu...hXH u.s.c.K } } #.g.",
"2.F | ,.0.B.} b 1 L X.e &._ S )._ ,  ., O.o...b } O.%.1 B R. .r.I r.O.| v.< t ..6.,.b.+.m >.k.U B.D J ].#.g.[.c.g.x.h.*.*.n.9 J ",
"<.&.u.O >.F i. .+.3.r.=.2.s I V q =.} / | B ..h.R C y.a R + 5 U * m L.t.d.| t.V.#.e.$XC.M 7.u e *.| %.U ;.B.}.y 0.M.! b.3.c.h.b.",
"&.&.G ^ ) #.r.p._ , 0...} = < 2 [.U ,.m 7 ( E p.+...1 l o.& 8 : @.-.a 8.tXh.A.:.|.C.P.w.~.c.;.w.3.cX|.p }.6.m.[ E.m.D.c.9Xg.B.m.",
"* z * 1.p.g.$.V ).u 4.B - u.N C.X.} k r | 8 ..4.2 & w +  .Z < 5 0 $.2.7.g.q.g.|.C.l.[  .=.N.I.c.&Xx.B.C p.qXm.].v.P.x.{.gXB.sX{.",
"y.@.X.a o.u.0.E G $.L.W 7.h.$.*.} i ..-.U z U x.7.m.O.z 0 x % l _ 3.M $.Z 5.g.[.qXgXg.j.2.,.n.k.w.E C.4.;.Z.*.*XA.N.w.e.N.;.F.$X",
"g.g.0.s.3 7Xm s =.} n p t s.o.%.u.` | +.` ) >.B @.' H.F < = F L } > 2.#.3.P.0.&XV.x.m.4./ rXT.gX;.w.U.>.f.P.tX&.Z.g.}.Z.XX9XuXtX",
"o.y.| ' 3.M 2.%.A q >.q U. .N c.U 2.1 j.H 5.w | *., u.< h . R & Z k ) 9 z.B.*.T.N.B.m.t.Z.>XC.X.S.b.A.:X8X{ y 6XbXqXj.g.m.Y.*X-.",
"G q...q.^ ,.@.o.X.t.x o.C @.*.T 0.q o.M g.1 } j.X.7 a 4 ! D 2 Y o.6 O.t.0.5.b.:.f.v.b.! sXo.>XpXZ.{.&.n.:.c.3.C.3.N.C.T.lX/.NXB.",
"h.;.O.XX=.o.y t.1.- ;.C K  .D - o.e R C ;.D m u.J t.3.v 2 j = 0 X.B @ , m..Xe.b..XI.e @X,.u.C.0.:.c.D.9Xc.s.9X8.i.u.5.nXf R.Z.pX",
"[.u c.9XV | r b * Z c.3X< , } 3 N ..c.0 H e $ _ Y =.e M g I # 1 Z o.6 c :.h.t u.S.h.&Xg.u.$Xq.p.A.}.c.[ 6X9X5.q.A.6XS.}.=XcXh.~.",
"#.Q.9.K.} 9 -.a p ) M c.t + - #.x. ., @.A 2.d 6.#.w v.j + + : h 1 ; - w u P ..pXn.y.[.q..Xb.T.E.A.eXs.8Xl.b.w.5.{.B.:.D.E.:XzX/.",
"D.E.c.R z n 0 , :.@.r.,.7 | l y.+.S #.M ;.} h.y.2.W a M | X O & t...= H 1.g.a 7XR.'.g.| =.,.z.g.5XD.@.A.;.d.q.W.s.C.b.fX:XsXlXbX",
"c.1Xb.q...i | H t e { 1 6X .@.E L X.%.* t } = y _ n $.u I % X % O o g + XXwX~.H.B.$.f ,.*.#X5.M.Q 5.2.q.].:.I.@XyXz.e.0XZXzXkXtX",
"E.C.V.B...A C i y &.r.V =.s 0 l.d.m =.` v a A K * 0 X.@ 9 X ; O 1 M e w h.l.@X5XC.n.s.F.5.6.d.s @Xs.D.t.0.yXrXq.yXx.:.,XKXdX%XT.",
"tXR.F.I.+.5 % #.N.T ..w R 9., m f ) t.V N ] q +.y.# M + 8 4 w Y # I D k M.XX).7.D.[.~.0.u.8X@XR.w.6.S.%X0XG K B.q.u.p.zXzX!.MXiX",
"s.A.Z.qX} @.2 V w.C B _ | #.m.,._.> | y.H.y.6.3.t E K * N b b } + e : < qXS.Q.,.s.}.( &.F.}.u.G 7.eXN.v.l.,.{ H.M.,.) ZXCXzXh.mX",
"=XZXN.Z.....W ,.d.o.i.2.E } O + x.O.F K.7.| 1 n.C b } l V z * . o e 7 . 0.x.l.e.2.e.3.R.9Xd.[ 0.x.w.c.` 0X>.t.fXu.A.0.ZXFXAXnXB.",
"+Xl.tX{.& i.2.$.+ e | $. .;.z ,.r.#.4 D +.d W X.Y | m k U | ^ j 2 n m t.wX3.+X&.=.c.x.3.w.=.z.( ;.9X[ Z.A.,.=.%.*.a.m.KXGXGX2XxX",
"%X6XC.!.x a r.o.U Y U -.U +.+.+.t.u.+.R ;./ n F R =.V @ 0 A j X & T s.K 0.sXN.X.W.3.v...yX@.4.S.} *.K.2.x.oX0Xc.p.@.9XVXGXJXxX1X",
"<XBXC.1.X.6.F e 6  .S Y -.p f.c m U T A ! + i.u o.& ,.l @ N O x * p q H #.c.c.5.1.#. .eXf.Q.B.8.h.9X;.q.0.;.~.N.}.U.qXGXDXDXZXxX",
"bXW.bX5.t ( m  .} @.0.l t } r J W q o.Y 1. .9 x g.8 r R ! + . ; 0 k _ M XX|.u.S.,. XU.l.} ..0.h.m.H.u.9Xa./ [.0._.5.D.SXFXKXGXJX",
"CXe.9X7.E L = x...E ..+ ].&.2...k s.t.T / $...-.C | u > w . + O > I 3.e g.W uXu.nX%XC.A.V.|.D.7X0Xt.i l.;.f eXl.0...*.JXFXSXFXZX",
"0XiX%X@X^ #.I m 7 j.0.*.x. .0.X.g.u.q p / j.A.-.F m x.O x : > h O O c L q.o.#Xb.Y.-.;.8.R.$.tX+...T.s.#.G `...f ,.g.f DXJXUXGXLX",
"wX`.w.$XZ 6.x t &...M | &.g +.= | +.x u x.o.#.3.d.X.t.x O o 1 . | ; >.l .X0.:XrX{.6.d.w.F uXZ.c.c.p.P.i.2.@Xz.x.:.A b.IXJXFXJXSX",
"w.CXrXbX-.+.2.! d.| O. .m 6 ' 6 | %.@.e =.C X.q 6 | 1 , @ . @ k U ; T ! 2.m.;.A.V.f.6Xc.OXF V.#.1.l.w.8Xr.;.rXb.p.S.w.KXPXSXUXDX",
"~.T.B.XX{ &.o.*.! 4.o s.j S O. .$.W 7 u.%.g.7 +./ f +.n U : i.. + j < + x k.o.] OXc.3.%XB./.N.;X<X#X!.1XiXnXAXGXVXHXLXJXGXDXLXJX",
"0XuXbXe.W y.g.@.1 @.v.t.) +.O.` #.= ,.8 E E M N 3.- n g   O O < h O I I * p...*.0 m.Z.^.>XvXw.V.XXnXNXjX>XVXVXSXDXKXHXGXPXKXFXGX",
"wXI.l.8XS ^.Z.^.&Xl.F.B.#.qXf.+.0.G.#.r o.Q U E k + < + % X h @ + X o # l x.h.,.W 6.o.x z.z.wXOX^.CXhXvXNXkX2XBXPXFXFX,XJXUXKXSX",
"Z.wX9XV.OXF.z.gXp.8.1.#.#.w.6Xu.,.w.8X0.5.m.r > c < ; k O o O X U % w Q } 8 t.! 6.l.*.1.'.AXy.A.nXA.BX=XlXyXuXSXBXjXLXzXKXJXHXIX",
"s.XXn.b.2.Z.<XB.:.W.6.N.5.` j...^.XXs @.y.z qXO O O l % . < X o l o I O &., q =.%.q.e.|.+XY.tX$XZ.BXVX^.dXBXnX~.&XrXnXPXKXPXSXJX"
};
