/* XPM */
static char *texture_64[] = {
/* columns rows colors chars-per-pixel */
"64 64 243 2 ",
"   c #23172B",
".  c #211829",
"X  c #222036",
"o  c #362937",
"O  c #362C37",
"+  c #372C3E",
"@  c #3C2D3B",
"#  c #4E2A2F",
"$  c #412732",
"%  c #4A2F38",
"&  c #47303A",
"*  c #4B3138",
"=  c #4E393F",
"-  c #573032",
";  c #553038",
":  c #5C3038",
">  c #563A3E",
",  c #703227",
"<  c #6C423B",
"1  c #6B453E",
"2  c #7A4134",
"3  c #794136",
"4  c #122856",
"5  c #132856",
"6  c #142855",
"7  c #152A54",
"8  c #152A55",
"9  c #192C57",
"0  c #1A2E57",
"q  c #172C58",
"w  c #1A2E58",
"e  c #1C2F58",
"r  c #1D3159",
"t  c #1F325B",
"y  c #20335B",
"u  c #253459",
"i  c #21345C",
"p  c #22365E",
"a  c #24375E",
"s  c #3B435F",
"d  c #5E4042",
"f  c #5F4345",
"g  c #55464C",
"h  c #544949",
"j  c #5B4948",
"k  c #555054",
"l  c #5E5956",
"z  c #604342",
"x  c #664040",
"c  c #624344",
"v  c #604846",
"b  c #6A4A45",
"n  c #60474B",
"m  c #604A4B",
"M  c #654E4F",
"N  c #6F4B4B",
"B  c #6A4E49",
"V  c #724241",
"C  c #784F4B",
"Z  c #6A514D",
"A  c #6C514C",
"S  c #7F544B",
"D  c #7F564A",
"F  c #675756",
"G  c #6E5A59",
"H  c #795A52",
"J  c #7A5C52",
"K  c #7D6155",
"L  c #796259",
"P  c #78645B",
"I  c #7C6558",
"U  c #454960",
"Y  c #535263",
"T  c #545466",
"R  c #766461",
"E  c #776B63",
"W  c #7E6862",
"Q  c #776B6D",
"!  c #737076",
"~  c #804A35",
"^  c #9C5636",
"/  c #A35E3D",
"(  c #814F40",
")  c #8D5244",
"_  c #845B49",
"`  c #885D4C",
"'  c #935C45",
"]  c #845C50",
"[  c #9A6546",
"{  c #966E4E",
"}  c #846250",
"|  c #8C6153",
" . c #80665A",
".. c #8C6A5B",
"X. c #8D6E59",
"o. c #8D6C5D",
"O. c #926858",
"+. c #916D5C",
"@. c #98725F",
"#. c #A06748",
"$. c #B67245",
"%. c #BC7847",
"&. c #A16D51",
"*. c #A17354",
"=. c #A37658",
"-. c #A67D5E",
";. c #A87E5F",
":. c #8E6B61",
">. c #897165",
",. c #86756D",
"<. c #8D776A",
"1. c #8A776F",
"2. c #967764",
"3. c #877C77",
"4. c #A17F67",
"5. c #B5835A",
"6. c #B9825A",
"7. c #BE8B5F",
"8. c #9D8168",
"9. c #99826C",
"0. c #84847E",
"q. c #9D8672",
"w. c #9F8870",
"e. c #9D8C7B",
"r. c #AA8A66",
"t. c #A7876E",
"y. c #AB886B",
"u. c #B58A67",
"i. c #B88966",
"p. c #A08673",
"a. c #A58974",
"s. c #A08979",
"d. c #A6947C",
"f. c #CE8C58",
"g. c #CA8D5F",
"h. c #CB9461",
"j. c #CB9463",
"k. c #CE9F6E",
"l. c #DA9A63",
"z. c #DA9F6A",
"x. c #C09A72",
"c. c #C09D77",
"v. c #CDA37B",
"b. c #D8A778",
"n. c #E2A86B",
"m. c #E9AB69",
"M. c #E8AC6C",
"N. c #EEB16E",
"B. c #E5AE70",
"V. c #E1AE7B",
"C. c #E8B274",
"Z. c #EDB774",
"A. c #E9B57B",
"S. c #F3B874",
"D. c #F5BA74",
"F. c #F5BD76",
"G. c #F3BF7F",
"H. c #2C5D91",
"J. c #7C7A80",
"K. c #6F7C98",
"L. c #868080",
"P. c #868581",
"I. c #8A8180",
"U. c #958C82",
"Y. c #9F8F89",
"T. c #8F8C90",
"R. c #999B96",
"E. c #9D9C97",
"W. c #91949B",
"Q. c #92999D",
"!. c #A49382",
"~. c #AA9687",
"^. c #A39885",
"/. c #A39C8D",
"(. c #B39D84",
"). c #B99E82",
"_. c #B29C8A",
"`. c #A69F95",
"'. c #A99F97",
"]. c #AFA08D",
"[. c #B3A28C",
"{. c #BEA58C",
"}. c #A8A59B",
"|. c #B9A892",
" X c #8D97AC",
".X c #92A7B3",
"XX c #B3ACA3",
"oX c #B9A8A2",
"OX c #B6B4A8",
"+X c #B1B3AF",
"@X c #B5B4AF",
"#X c #B0AFBA",
"$X c #B4B4B1",
"%X c #B9B6B3",
"&X c #BBB9B5",
"*X c #BABEB6",
"=X c #C9A789",
"-X c #CFB089",
";X c #C8AF95",
":X c #C2B69D",
">X c #C9BB9D",
",X c #DBBB93",
"<X c #E7B581",
"1X c #E8BA85",
"2X c #E6BD88",
"3X c #E4BF92",
"4X c #C1B6A6",
"5X c #C8BCAD",
"6X c #C7BEB3",
"7X c #BBC1BF",
"8X c #DAC19E",
"9X c #F4C68A",
"0X c #F4CA91",
"qX c #F2CE9E",
"wX c #C3C0AB",
"eX c #C9C2A8",
"rX c #CAC0B5",
"tX c #DAC0BC",
"yX c #DDD5B4",
"uX c #E6C8A2",
"iX c #ECCCA4",
"pX c #F1D3AB",
"aX c #F6D8A8",
"sX c #F5DBB2",
"dX c #F7DCB0",
"fX c #CECBC2",
"gX c #CCCDC0",
"hX c #CACBC8",
"jX c #CCCECB",
"kX c #D2D0C7",
"lX c #D3D5D2",
"zX c #D8D8D3",
"xX c #ECE5C7",
"cX c #EFE1CA",
"vX c #F6E2C1",
"bX c #E1E0D4",
"nX c #E2E1D7",
"mX c #E7E3D7",
"MX c #ECE5D3",
"NX c #F6EFD9",
"BX c #EDEDE2",
"VX c #F0F1EB",
"CX c #F4F6ED",
/* pixels */
"8 8 8 8 7 7 8 8 7 7 8 8 7 7 8 8 8 8 8 8 8 8 8 8 8 8 8 8 8 8 8 8 8 8 8 8 8 8 8 8 8 8 8 8 8 8 8 8 8 8 8 8 8 8 8 8 8 8 8 8 8 7 7 7 ",
"8 8 8 8 7 7 8 8 7 7 8 8 7 7 8 8 8 8 8 8 8 8 8 8 8 8 8 8 8 8 8 8 8 8 8 8 8 8 8 8 8 8 8 8 8 8 8 8 8 8 8 8 8 8 8 8 8 8 8 8 8 8 7 7 ",
"8 8 8 8 8 8 7 7 7 7 7 7 8 8 7 7 8 8 8 8 8 8 8 8 8 8 8 8 8 8 8 8 8 8 8 8 8 8 8 8 8 8 8 8 8 8 8 8 8 8 8 8 8 8 8 8 8 8 8 8 7 7 8 8 ",
"8 8 8 8 8 8 7 8 7 7 7 7 8 8 7 7 8 8 8 8 8 8 8 8 8 8 8 8 8 8 8 8 8 8 8 8 8 8 8 8 8 8 8 8 8 8 8 8 8 8 8 8 8 8 8 8 8 8 8 8 7 7 8 8 ",
"8 8 8 8 8 8 8 8 0 0 0 0 7 7 7 7 8 8 8 8 8 8 8 8 8 8 8 8 8 8 8 8 8 8 8 8 8 8 8 8 8 8 8 8 8 8 7 7 8 8 8 8 8 8 8 8 7 7 8 8 8 8 7 7 ",
"8 8 8 8 8 8 8 8 0 0 0 0 7 7 7 7 8 8 8 8 8 8 8 8 8 8 8 8 8 8 8 8 8 8 8 8 8 8 8 8 8 8 8 8 8 q 7 7 8 8 8 8 8 8 8 8 7 7 8 8 8 8 7 7 ",
"8 8 8 8 8 8 8 8 a a 0 0 8 8 8 8 6 6 q q 8 8 8 8 8 8 8 8 4 4 8 8 q q 8 8 8 8 8 8 8 8 8 8 6 6 6 6 8 8 8 8 8 8 8 8 8 8 7 7 7 7 8 8 ",
"8 8 8 8 8 8 8 8 a a 0 0 8 8 8 8 6 6 q q 8 8 8 8 8 8 8 8 4 4 8 8 q q 8 8 8 8 8 8 8 8 8 8 6 6 6 6 8 8 8 8 8 8 8 8 8 8 7 7 7 7 8 8 ",
"8 8 6 6 4 4 q q 8 8 8 8 8 8 q q 8 8 q q 4 4 8 8 8 8 1X1Xq q 5 5 6 6 8 8 7 7 1X1X6 4 q q q q q 9 6 6 6 6 6 6 8 8 8 8 7 7 8 8 7 7 ",
"8 8 6 8 4 4 q q 8 8 8 8 8 8 q q 8 8 q q 4 4 8 8 8 8 1X1Xq q 5 4 6 6 8 8 7 7 1X1X6 6 q q w 7 q 9 6 6 6 6 6 6 8 8 8 8 7 7 8 8 7 7 ",
"6 6 8 8 8 8 8 8 8 8 8 8 8 8 8 8 5 5 q q 8 8 8 8 8 8 i.i.b.b.4 4 q q 8 8 6.6.;.;.k.k.q q 1.1.p.p.p a 4 4 q q 8 8 8 8 8 8 8 8 7 7 ",
"6 6 8 8 8 8 8 8 8 8 8 8 8 8 8 8 5 5 q q 8 8 8 8 8 8 i.i.b.b.6 6 q q 8 8 6.6.;.;.k.k.9 9 1.1.p.q.a a 4 4 q q 8 8 8 8 8 8 8 8 7 7 ",
"8 8 6 6 8 8 q q 8 8 8 8 8 8 8 8 q q 4 4 8 8 8 8 8 8 < < 5.5.D.D.m.m.N.N.j.j.< < g.i.u u v.v.<X<Xs s 6 6 8 8 8 8 8 8 8 8 7 7 8 8 ",
"8 8 6 6 8 8 q q 8 8 8 8 8 8 8 8 q q 4 4 8 8 8 8 8 8 < < 5.5.D.D.m.m.M.Z.j.j.< < 7.7.u u v.v.<X<Xs s 6 6 8 8 8 8 8 8 8 8 7 7 8 8 ",
"6 6 8 8 8 8 8 8 8 8 8 8 8 8 8 8 8 8 8 8 6 6 8 8 6 6 [ [ %.%.V.V.f.f.z.z.m.M.j.h.7 7 8 8 U U Y Y 9 q 6 6 8 8 8 8 8 8 8 8 7 7 7 7 ",
"6 6 8 8 8 8 8 8 8 8 8 8 8 8 8 8 8 8 8 8 6 6 8 8 6 6 [ [ %.%.V.V.f.f.z.z.M.M.j.j.7 7 8 8 U U Y Y 9 q 6 6 8 8 8 8 8 8 8 8 7 7 7 7 ",
"8 8 8 8 8 8 8 8 8 8 8 8 8 8 7 7 8 8 y y 8 8 8 w 6 5 / / ~ ~ } } l.l.*.*.{ { B.B.8 8 8 8 4 4 5 5 7 7 q 8 8 8 8 8 8 8 8 8 8 8 8 8 ",
"8 8 8 8 8 8 8 8 8 8 8 8 8 8 7 7 8 8 y t 8 8 q q 6 6 / / ~ ~ } } l.l.*.*.{ { B.B.8 8 8 8 4 5 5 5 7 7 8 8 8 8 8 8 8 8 8 8 8 8 8 8 ",
"6 4 4 8 8 8 8 8 8 8 8 8 8 8 7 7 8 8 a a w w 8 8 ' ' ;X;Xa.a...X.w.w.!.!.(.(.cXcXsXsX8 8 q 6 7 6 8 8 8 8 8 8 8 8 8 8 8 8 8 8 8 8 ",
"6 4 8 8 8 8 8 8 8 8 8 8 8 8 7 7 8 8 a a w w 8 8 ' ' ;X;Xa.a.X.X.w.w.!.!.(.(.cXcXsXsX8 8 8 8 7 7 8 8 8 8 8 8 8 8 8 8 8 8 8 8 8 8 ",
"4 6 8 8 8 8 8 8 8 8 8 8 8 8 8 8 8 8 8 8 8 8 8 8 y.y.>X>X:X:Xe.e.X X W.W.nXnXCXCXNXNX8 8 6 q 6 6 q q 6 6 8 8 8 8 8 8 8 8 8 8 8 8 ",
"4 6 8 8 8 8 8 8 8 8 8 8 8 8 8 8 8 8 8 4 8 8 8 8 y.y.>X>X:X:Xe.e.X X W.W.nXnXCXCXNXNX8 8 7 7 6 6 q q 6 6 8 8 8 8 8 8 8 8 8 8 8 8 ",
"6 6 6 6 8 8 8 8 8 8 8 8 8 8 8 8 8 8 4 4 q q 8 8 7 7 @.@.....M M + + ! ! gXgXxXxX8X8XOXOXlXlX5 5 6 6 q q 8 8 8 8 8 8 8 8 8 8 8 8 ",
"6 6 8 4 8 8 8 8 8 8 8 8 8 8 8 8 8 8 4 6 q q 8 8 7 7 @.2.o.o.M M + + ! ! gXjXxXxX8X,XOXOXlXlX5 5 6 6 q q 8 8 8 8 8 8 8 8 8 8 8 8 ",
"6 4 4 8 6 6 8 8 8 8 8 8 8 8 8 8 8 8 8 8 8 8 8 8 8 8 D D @.@.C C N N [.[.yXyXc.c.s.s.6 6 hXhXq q q q 5 5 8 8 4 4 8 8 4 4 6 6 8 8 ",
"6 4 8 8 6 6 8 8 8 8 8 8 8 8 8 8 8 8 8 8 8 8 8 8 8 8 D D @.2.C C N N [.[.yXyXc.c.s.s.7 6 hXhXq q q q 5 5 8 8 4 4 8 8 4 6 6 6 8 8 ",
"4 4 8 8 8 8 6 8 8 8 8 8 8 8 8 8 8 8 8 8 8 8 8 8 8 8 * * ....] ] 2.2.eXeXwXwXU.U.@X@Xq q 7X7X6 7 6 6 q q 8 8 q q 8 8 q q q q 8 8 ",
"4 4 8 8 8 8 6 4 8 8 8 8 8 8 8 8 8 8 8 8 8 8 8 8 8 8 * * ....] ] 2.2.eXeXwXwXU.U.@X%Xq q 7X7X6 q 6 6 q q 8 8 q q 8 8 q q q q 8 8 ",
"8 8 q q 4 4 q q q q 8 8 8 8 8 8 8 8 8 8 8 8 8 8 j j g g R R W W 3.3.}.}.0.0.P.P.&X&Xq 5 jXjX5 5 q q 4 4 8 8 8 8 8 8 8 8 4 4 6 6 ",
"8 8 q q 4 4 q q q q 8 8 8 8 8 8 8 8 8 8 8 8 8 8 j j g g R R W W 3.3.}.}.0.0.P.P.&X6X5 5 jXjX5 5 q q 4 4 8 8 8 8 8 8 8 8 4 4 6 6 ",
"4 4 8 8 8 8 8 8 6 4 8 8 8 8 8 8 8 8 8 8 8 8 8 8  . .,.,.].].R.R.$X+XE.E.l l *X*X#X#XtXtX$X$Xq q 8 8 w w w w 6 6 8 8 8 8 8 8 8 8 ",
"4 4 8 8 8 8 8 8 6 4 8 8 8 8 8 8 8 8 8 8 8 8 8 8  . .,.,.].].R.R.+X+XE.E.l l *X*X#X#XtX6X$X$Xq q 8 8 w w w w 6 6 8 8 8 8 8 8 8 8 ",
"4 4 q q 8 8 8 8 8 8 8 8 8 8 8 8 8 8 8 8 8 8 K K H H 3 3 ) ) H.H..X.XT.T.= = _._.oXoXY.Y.%X%X8 8 8 6 i i t t 8 8 8 8 6 6 8 8 6 6 ",
"4 6 q q 8 8 8 8 8 8 8 8 8 8 8 8 8 8 8 8 8 8 K K H H 3 2 ) ) H.H..X.XT.T.= = _._.oXoXY.Y.%X%X8 8 6 6 i i t t 8 8 8 8 6 6 8 8 4 4 ",
"4 4 8 6 8 8 8 8 8 8 8 8 8 8 8 8 8 8 8 8 8 8 B B & & z z S S T T Q.Q.J.J.$ $ j n q.q.-X-X6X6X8 8 8 8 8 8 8 8 8 8 8 8 8 8 4 4 q q ",
"4 4 4 4 8 8 8 8 8 8 8 8 8 8 8 8 8 8 8 8 8 8 B B & & z d S S T T Q.Q.J.J.$ $ n n q.q.-X-X6X6X8 8 8 8 8 8 8 8 8 8 8 8 8 8 4 4 q q ",
"4 8 4 8 8 8 8 8 8 8 8 8 8 8 8 8 8 8 8 8 q q 9.9.Z Z o o f f c c G G k k   . Q Q mXmXMXMXfXfX8 8 q q 8 8 6 6 8 8 8 8 8 8 6 6 4 8 ",
"8 8 6 6 8 8 8 8 8 8 8 8 8 8 8 8 8 8 8 8 q q 9.9.Z Z o o f f c c G G k k . . Q Q mXmXMXMXfXfX8 8 q q 8 8 6 6 8 8 8 8 8 8 6 6 8 8 ",
"4 6 8 8 8 8 8 8 8 8 8 8 8 8 8 8 5 5 q q 5 5 P P m m     d d N N L L E E O O L.L.zXzX5X5X).).8 8 8 8 8 8 8 8 8 8 8 8 8 8 8 8 4 4 ",
"4 6 8 8 8 8 8 8 8 8 8 8 8 8 8 8 5 5 q q 5 5 P P m m     d d N N L L E E O O L.L.zXzX5X5X).).8 8 8 8 8 8 8 8 8 8 8 8 8 8 8 8 4 4 ",
"4 8 8 8 8 8 8 8 8 8 8 8 8 8 8 8 q q 5 5 q q A A <.<.@ @ B B I I ^.^././.F F XXXXI.I.8.8.Z.Z.aXaX8 8 8 8 8 8 8 8 8 8 8 8 8 8 4 4 ",
"8 8 8 8 8 8 8 8 8 8 8 8 8 8 8 8 q q 4 4 q q A A <.<.@ @ B B I I ^.^././.F F XXXXI.I.8.8.Z.Z.aXaX8 8 8 8 8 8 8 8 8 8 8 8 8 8 4 4 ",
"8 8 8 8 8 8 w w t w 8 8 8 8 8 8 8 6 q q q q 8 8 >.>.% % > > 4.4.d.d.h h v v '.'.|.|.r.r.F.F.0X0X8 8 8 8 8 8 8 8 8 8 8 8 8 8 4 4 ",
"8 8 8 8 8 8 w w t e 8 8 8 8 8 8 6 6 q q q q 8 8 >.>.% % > > 4.4.d.d.h h v v '.'.|.|.r.r.F.F.0X0X8 8 8 8 8 8 8 8 8 8 8 8 8 8 8 4 ",
"8 8 8 8 8 8 w t t t 8 8 8 8 8 8 6 6 q q 6 6 8 8 q q 2 2 - - b b J J _ _ #.#.{.{.x.x.x.x.S.S.9X9X8 8 8 8 8 8 8 8 8 8 8 8 4 5 q q ",
"8 8 8 8 8 8 e 0 t i 8 8 8 8 8 8 6 6 q q 6 6 8 8 q w 2 2 - - b b J J _ _ #.#.{.{.x.x.x.x.S.S.9X9X8 8 8 8 8 8 8 8 8 8 8 8 4 5 q q ",
"8 8 8 8 8 8 8 8 6 6 8 8 8 8 8 8 8 8 8 8 8 8 8 8 8 8 8 8 ( ( $ $ % % &.&.iXiXuXuX1 1 =.=.D.D.qXqXC.Z.1XG.dXdX4 4 q q 8 8 6 6 6 6 ",
"8 8 8 8 8 8 8 8 6 6 8 8 8 8 8 8 8 8 8 8 8 8 8 8 8 8 8 8 ( ( $ $ % % &.&.iXiXuXuX1 1 =.=.D.D.qXqXC.Z.G.G.dXdX4 4 q q 8 8 6 6 6 6 ",
"8 8 8 8 8 8 8 8 8 8 6 6 8 8 8 8 8 8 8 8 8 8 8 8 8 8 8 8 O.O.: : ; ; u.u.vXvX3X3X# # ` ` 2X2X=X=X$.$.n.n.pXpX8 8 8 8 8 8 8 8 8 8 ",
"8 8 8 8 8 8 8 8 8 8 7 4 8 8 8 8 8 8 8 8 8 8 8 8 8 8 8 8 O.O.: : ; ; u.u.vXvX3X3X# # ` ` 2X2X=X=X$.$.n.n.pXpX8 8 8 8 8 8 8 8 8 8 ",
"8 8 8 8 q 8 6 6 8 8 q q 4 6 8 w 8 8 8 8 8 8 8 8 8 8 8 8 | | V V 8 8 i.i.A.A.-.-.w q x x ~.~.:.:., , ^ ^ g.g.8 8 8 8 8 8 8 8 8 8 ",
"8 8 8 8 4 4 4 6 8 8 q q 4 6 q q 8 8 8 8 8 8 8 8 8 8 8 8 | | V V 8 8 i.u.A.A.-.-.q q x x ~.~.:.:., , ^ ^ g.g.8 8 8 8 8 8 8 8 8 8 ",
"8 8 8 8 8 8 q q 8 8 8 8 4 8 8 8 8 8 7 7 7 7 8 8 8 8 8 8 +.+.8 8 8 8 t.t.,X,X8 8 6 6 8 8 rXrX4 4 6 6 8 8 8 8 8 8 8 8 8 8 8 8 8 8 ",
"8 8 8 8 8 8 q q 8 8 8 8 4 q 8 8 8 8 7 7 7 7 8 8 8 8 8 8 +.+.8 8 8 8 t.t.,X,X8 8 6 6 8 8 rX6X4 4 8 7 8 8 8 8 8 8 8 8 8 8 8 8 8 8 ",
"8 8 8 8 8 8 8 8 8 8 8 8 8 8 8 8 7 7 8 8 7 7 8 8 8 8 8 8 ..o.8 8 8 8 4X4XBXBX8 8 8 8 `.`.kXkX8 8 8 8 8 8 8 8 8 8 8 8 8 8 8 8 8 8 ",
"8 8 8 8 8 8 8 8 8 8 8 8 8 8 8 8 7 7 8 8 7 7 8 8 8 8 8 8 o.o.8 8 8 8 4X4XBXBX8 8 8 8 `.`.kXkX8 8 8 8 8 8 8 8 8 8 8 8 8 8 8 8 8 8 ",
"8 8 8 8 8 8 8 8 8 8 8 8 8 8 8 8 8 8 8 8 8 8 8 8 8 8 8 8 8 8 8 8 8 8 bXbXVXVX8 8 7 7 7 8 q q 6 6 8 8 7 7 e e t e 8 8 7 7 7 7 8 8 ",
"8 8 8 8 8 8 8 8 8 8 8 8 8 8 8 8 8 8 8 8 8 8 8 8 8 8 8 8 8 8 8 8 8 8 bXbXVXVX8 8 q 7 8 8 q q 7 4 8 8 7 q e e e e 8 8 7 7 7 7 8 8 ",
"8 8 8 8 8 8 8 8 8 8 8 8 8 8 8 8 8 8 8 8 8 8 8 8 8 8 8 8 8 8 8 8 8 8 8 8 6 6 7 w 7 4 7 4 4 4 q q 8 8 7 7 e r e t 7 7 8 8 8 8 7 7 ",
"8 8 8 8 8 8 8 8 8 8 8 8 8 8 8 8 8 8 8 8 8 8 8 8 8 8 8 8 8 8 8 8 8 8 8 8 6 6 q q 7 7 q q 4 4 q q 8 8 7 q r r y e 7 7 8 8 8 8 7 7 ",
"8 8 8 8 8 8 8 8 8 8 8 8 8 8 8 8 8 8 8 8 8 8 8 8 8 8 8 8 8 8 8 8 6 6 8 8 6 6 6 6 q q q q 8 8 8 8 8 8 8 8 7 7 7 7 8 8 7 7 7 7 8 8 ",
"8 8 8 8 8 8 8 8 8 8 8 8 8 8 8 8 8 8 8 8 8 8 8 8 8 8 8 8 8 8 8 8 6 6 8 8 6 6 6 6 q q q q 8 8 8 8 8 8 8 8 7 7 7 7 8 8 7 7 7 7 8 8 ",
"8 8 8 8 8 8 8 8 8 8 8 8 8 8 4 4 8 8 5 5 8 8 8 8 8 8 4 4 8 8 4 4 6 6 6 6 4 4 q q K.K. X Xa a 8 8 8 8 8 8 7 7 8 8 8 8 8 8 7 7 7 7 ",
"8 8 8 8 8 8 8 8 8 8 8 8 8 8 4 4 8 8 5 5 8 8 8 8 8 8 4 4 8 8 4 4 6 6 6 6 4 4 q q K.K. X Xp t 8 8 8 8 8 8 7 7 8 8 8 8 8 8 7 7 7 7 "
};
