/* XPM */
static char * chienmbleu2_xpm[] = {
"32 32 243 2",
"  	c #152A55",
". 	c #152A54",
"+ 	c #1A2E57",
"@ 	c #24375E",
"# 	c #142855",
"$ 	c #172C58",
"% 	c #122856",
"& 	c #E8BA85",
"* 	c #132856",
"= 	c #192C57",
"- 	c #B88966",
"; 	c #D8A778",
"> 	c #B9825A",
", 	c #A87E5F",
"' 	c #CE9F6E",
") 	c #8A776F",
"! 	c #A08673",
"~ 	c #6C423B",
"{ 	c #B5835A",
"] 	c #F5BA74",
"^ 	c #E9AB69",
"/ 	c #EEB16E",
"( 	c #CB9463",
"_ 	c #BE8B5F",
": 	c #253459",
"< 	c #CDA37B",
"[ 	c #E7B581",
"} 	c #3B435F",
"| 	c #9A6546",
"1 	c #BC7847",
"2 	c #E1AE7B",
"3 	c #CE8C58",
"4 	c #DA9F6A",
"5 	c #E8AC6C",
"6 	c #CB9461",
"7 	c #454960",
"8 	c #535263",
"9 	c #20335B",
"0 	c #A35E3D",
"a 	c #804A35",
"b 	c #846250",
"c 	c #DA9A63",
"d 	c #A17354",
"e 	c #966E4E",
"f 	c #E5AE70",
"g 	c #1A2E58",
"h 	c #935C45",
"i 	c #C8AF95",
"j 	c #A58974",
"k 	c #8D6E59",
"l 	c #9F8870",
"m 	c #A49382",
"n 	c #B39D84",
"o 	c #EFE1CA",
"p 	c #F5DBB2",
"q 	c #AB886B",
"r 	c #C9BB9D",
"s 	c #C2B69D",
"t 	c #9D8C7B",
"u 	c #222036",
"v 	c #91949B",
"w 	c #E2E1D7",
"x 	c #F4F6ED",
"y 	c #F6EFD9",
"z 	c #98725F",
"A 	c #8D6C5D",
"B 	c #654E4F",
"C 	c #372C3E",
"D 	c #737076",
"E 	c #CCCDC0",
"F 	c #ECE5C7",
"G 	c #DAC19E",
"H 	c #B6B4A8",
"I 	c #D3D5D2",
"J 	c #7F564A",
"K 	c #784F4B",
"L 	c #6F4B4B",
"M 	c #B3A28C",
"N 	c #DDD5B4",
"O 	c #C09D77",
"P 	c #A08979",
"Q 	c #CACBC8",
"R 	c #4B3138",
"S 	c #8C6A5B",
"T 	c #845C50",
"U 	c #967764",
"V 	c #C9C2A8",
"W 	c #C3C0AB",
"X 	c #958C82",
"Y 	c #B5B4AF",
"Z 	c #BBC1BF",
"` 	c #5B4948",
" .	c #55464C",
"..	c #766461",
"+.	c #7E6862",
"@.	c #877C77",
"#.	c #A8A59B",
"$.	c #84847E",
"%.	c #868581",
"&.	c #BBB9B5",
"*.	c #CCCECB",
"=.	c #80665A",
"-.	c #86756D",
";.	c #AFA08D",
">.	c #999B96",
",.	c #B1B3AF",
"'.	c #9D9C97",
").	c #5E5956",
"!.	c #BABEB6",
"~.	c #B0AFBA",
"{.	c #DAC0BC",
"].	c #B4B4B1",
"^.	c #7D6155",
"/.	c #795A52",
"(.	c #794136",
"_.	c #8D5244",
":.	c #2C5D91",
"<.	c #92A7B3",
"[.	c #8F8C90",
"}.	c #4E393F",
"|.	c #B29C8A",
"1.	c #B9A8A2",
"2.	c #9F8F89",
"3.	c #B9B6B3",
"4.	c #21345C",
"5.	c #1F325B",
"6.	c #6A4E49",
"7.	c #47303A",
"8.	c #604342",
"9.	c #7F544B",
"0.	c #545466",
"a.	c #92999D",
"b.	c #7C7A80",
"c.	c #412732",
"d.	c #60474B",
"e.	c #9D8672",
"f.	c #CFB089",
"g.	c #C7BEB3",
"h.	c #99826C",
"i.	c #6A514D",
"j.	c #362937",
"k.	c #5F4345",
"l.	c #624344",
"m.	c #6E5A59",
"n.	c #555054",
"o.	c #211829",
"p.	c #776B6D",
"q.	c #E7E3D7",
"r.	c #ECE5D3",
"s.	c #CECBC2",
"t.	c #78645B",
"u.	c #604A4B",
"v.	c #23172B",
"w.	c #5E4042",
"x.	c #796259",
"y.	c #776B63",
"z.	c #362C37",
"A.	c #868080",
"B.	c #D8D8D3",
"C.	c #C8BCAD",
"D.	c #B99E82",
"E.	c #6C514C",
"F.	c #8D776A",
"G.	c #3C2D3B",
"H.	c #7C6558",
"I.	c #A39885",
"J.	c #A39C8D",
"K.	c #675756",
"L.	c #B3ACA3",
"M.	c #8A8180",
"N.	c #9D8168",
"O.	c #EDB774",
"P.	c #F6D8A8",
"Q.	c #1D3159",
"R.	c #897165",
"S.	c #4A2F38",
"T.	c #563A3E",
"U.	c #A17F67",
"V.	c #A6947C",
"W.	c #544949",
"X.	c #604846",
"Y.	c #A99F97",
"Z.	c #B9A892",
"`.	c #AA8A66",
" +	c #F5BD76",
".+	c #F4CA91",
"++	c #1C2F58",
"@+	c #7A4134",
"#+	c #573032",
"$+	c #6A4A45",
"%+	c #7A5C52",
"&+	c #845B49",
"*+	c #A06748",
"=+	c #BEA58C",
"-+	c #C09A72",
";+	c #F3B874",
">+	c #F4C68A",
",+	c #814F40",
"'+	c #A16D51",
")+	c #ECCCA4",
"!+	c #E6C8A2",
"~+	c #6B453E",
"{+	c #A37658",
"]+	c #F2CE9E",
"^+	c #E8B274",
"/+	c #F3BF7F",
"(+	c #F7DCB0",
"_+	c #926858",
":+	c #5C3038",
"<+	c #553038",
"[+	c #B58A67",
"}+	c #F6E2C1",
"|+	c #E4BF92",
"1+	c #4E2A2F",
"2+	c #885D4C",
"3+	c #E6BD88",
"4+	c #C9A789",
"5+	c #B67245",
"6+	c #E2A86B",
"7+	c #F1D3AB",
"8+	c #8C6153",
"9+	c #724241",
"0+	c #E9B57B",
"a+	c #A67D5E",
"b+	c #664040",
"c+	c #AA9687",
"d+	c #8E6B61",
"e+	c #703227",
"f+	c #9C5636",
"g+	c #CA8D5F",
"h+	c #916D5C",
"i+	c #A7876E",
"j+	c #DBBB93",
"k+	c #CAC0B5",
"l+	c #C1B6A6",
"m+	c #EDEDE2",
"n+	c #A69F95",
"o+	c #D2D0C7",
"p+	c #E1E0D4",
"q+	c #F0F1EB",
"r+	c #6F7C98",
"s+	c #8D97AC",
"t+	c #22365E",
"    .   .   .                                               . . ",
"      . . .   .                                             .   ",
"        + + . .                                         .     . ",
"        @ +     # $         %   $           # #           . .   ",
"  # % $       $   $ %     & $ * #     & % $ $ = # # *     .   . ",
"#               * $       - ; % $   > , ' = ) ! @ % $         . ",
"  #   $         $ %       ~ { ] ^ / ( ~ _ : < [ } #         .   ",
"#                   #   # | 1 2 3 4 5 6     7 8 = #         . . ",
"            . .   9   $ * 0 a b c d e f     % %                 ",
"%             .   @ g   h i j k l m n o p                       ",
"%                       q r s t u v w x y     # $ #             ",
"# #               % $     z A B C D E F G H I * # $             ",
"*   #                     J z K L M N O P   Q $ $ *   %   % #   ",
"%     #                   R S T U V W X Y $ Z   # $   $   $ $   ",
"  $ % $ $               `  ...+.@.#.$.%.&.# *.* $ %         % # ",
"%       *               =.-.;.>.,.'.).!.~.{.].$   g g #         ",
"% $                   ^./.(._.:.<.[.}.|.1.2.3.  # 4.5.    #   % ",
"% *                   6.7.8.9.0.a.b.c.d.e.f.g.              % $ ",
"  #                 $ h.i.j.k.l.m.n.o.p.q.r.s.  $   #       #   ",
"%               * $ * t.u.v.w.L x.y.z.A.B.C.D.                % ",
"                $ * $ E.F.G.6.H.I.J.K.L.M.N.O.P.              % ",
"      g Q.      # $ $   R.S.T.U.V.W.X.Y.Z.`. +.+              * ",
"      ++5.      # $ #   $ @+#+$+%+&+*+=+-+-+;+>+            * $ ",
"        #                   ,+c.S.'+)+!+~+{+] ]+^+/+(+% $   # # ",
"          #                 _+:+<+[+}+|+1+2+3+4+5+6+7+          ",
"      %   $ % $             8+9+  - 0+a+$ b+c+d+e+f+g+          ",
"      $           . .       h+    i+j+  #   k+%                 ",
"                .   . .     A     l+m+    n+o+                  ",
"                                  p+q+      $ #     ++Q.  . .   ",
"                                    # $     % $     Q.Q..     . ",
"                                #   # # $ $         . .   . .   ",
"              %   *       %   % # # % $ r+s+t+      .       . . "};
