/* XPM */
static char *wood_planks_64[] = {
/* columns rows colors chars-per-pixel */
"64 64 93 2 ",
"   c #6FC254B10EE6",
".  c #731A55420F00",
"X  c #754259800EF0",
"o  c #79CE58DE0EB3",
"O  c #6F1154AE1106",
"+  c #73BE561211D0",
"@  c #782756E71174",
"#  c #754E5939121C",
"$  c #7B225C761519",
"%  c #7E1165B90DE8",
"&  c #7DF96B8F0E11",
"*  c #7FF772910EE3",
"=  c #7D9365451478",
"-  c #74B96C04151D",
";  c #7D096B49131E",
":  c #7BE864091C75",
">  c #7CDD69C31A36",
",  c #7F7A725515E6",
"<  c #7EFE724C180F",
"1  c #7C385E8B2197",
"2  c #8F945EE30708",
"3  c #83F65D7A0D95",
"4  c #8B225E050CB1",
"5  c #907F5E7708E4",
"6  c #845D5DDA13D6",
"7  c #8BBC5E26147C",
"8  c #84585E5C1A2B",
"9  c #8BAE5D891AE3",
"0  c #91905E1F1371",
"q  c #927F5E611A79",
"w  c #8B4B65C2069A",
"e  c #84AC6D0D06BE",
"r  c #8AC3691006C2",
"t  c #850764B20CE6",
"y  c #8C3B642D0C95",
"u  c #84F76B480D41",
"i  c #8BE86B0A0D52",
"p  c #90A4692F0777",
"a  c #924564910D28",
"s  c #981A668B0C60",
"d  c #92656B850CD6",
"f  c #99076C960E82",
"g  c #851E727A0C76",
"h  c #8C1A72350D5E",
"j  c #92C673270CFD",
"k  c #987D72DE0F0E",
"l  c #850B64B713D4",
"z  c #8BAC64E013B1",
"x  c #85316B3013BC",
"c  c #8BD56B3613A5",
"v  c #853E644B1A43",
"b  c #8BAA64E61A37",
"n  c #85376B5A1A8B",
"m  c #8BDD6B551A3C",
"M  c #92DF64C71401",
"N  c #9AB2664C1445",
"B  c #92D86B9013A3",
"V  c #99846C491433",
"C  c #92BE65AB1A04",
"Z  c #9967643018AE",
"A  c #936B6C4F1AF1",
"S  c #9BC96AC919F6",
"D  c #84F6723E13C7",
"F  c #8C77725B13DE",
"G  c #86F478F41652",
"H  c #8BD07A0B13CE",
"J  c #84B0723619BB",
"K  c #8C4672231ABE",
"L  c #8A427AFC1CD9",
"P  c #92C3731213C1",
"I  c #9A637101147E",
"U  c #991178E81379",
"Y  c #94B471C01C88",
"T  c #9BD3758B1EFE",
"R  c #90B07803186A",
"E  c #9D8078A31ECA",
"W  c #A0E077FD1E73",
"Q  c #8E125D9222F9",
"!  c #85C464DB2147",
"~  c #8D4F645920D4",
"^  c #86036C9B20CD",
"/  c #8CF56ADD2220",
"(  c #89A167AE2990",
")  c #90AA638F228E",
"_  c #92D76B942119",
"`  c #86047337207F",
"'  c #8B307314213C",
"]  c #8DE579F62148",
"[  c #949372A52045",
"{  c #9D20769020B1",
"}  c #9D5078B320AD",
"|  c #A0AB76662083",
" . c #A0987973221D",
/* pixels */
"+ c c B M d n m i 6 5 ~ n ! v + l Y i V B x n / A Y K F Z m x # z D i M z P V z c t Y ] L c z # b m x ! ~ b M c F d B Z C z t w ",
"O m c i z l x c 7 l c x b m x # 9 z x z z y c b S m x x c n x # z F m b z r z z c i h h x & < # l t 6 z v C Z x z 7 z 4 l c c l ",
". c i u l 8 c i i i c l V j r # 8 l u z y w y z M V x c c A m # v J m ~ z z M x u d i z x x J + = x J u b l C M v 9 z y 2 l x x ",
"O > z l z B 9 b c h g x c y x # v F x l x 6 n z z Z B M m C c # n F c m b ~ b b b z u t l i n + v m F c z t C B C z i M w v x u ",
"  % r y Z a m v i F h ; x 6 = # c P l z u n ^ c C Z z z b b y # x x x i m c 9 y x u P c Z C m # 6 y F B V z z c z x x V 5 l m g ",
". 3 t l 0 B M v u d r x b n ; # m n c i t c ^ B Z m z c z M z # l g h d a B a y x h H H i z b # x c u u B x D m z i t y 4 6 ^ m ",
"O t t z c B M V V i u c b b l . u F A c c u B V i c u J z i % . l F P g h V M z A z m M y z 8 # - e e x z m c c P r e i z b v v ",
"O l c / [ A M V f c B B P m v + J F M z C ) B M d i x b A z 7 # F S I r e j B c m V m b B B z # e g H m t B z z d F c m c y t P ",
"+ A { { } { | { W } T W } { Y $ [  .T T | | T T T T { { { { Y $ Y {  .T T E T E { } { { { { Y $ Y E } { T { { { E E T } { T T E ",
"+ {  . . . . . . . . . . . .{ $ Y  . . . . . . . . . . .| | { $ Y  . . . . . . . . . . . . .{ $ T  . . . . . . . . . . . . . . .",
"+ [  . . . . . . . . . . . .[ $ T  . .}  . . . . . . . . . .[ $ { }  . . . . . . . . . . . .[ $ Y  . . . . .}  . . . . . . . . .",
"# Y { | { { {  .} { } T { { Y $ _ { { { { T { T } | | { { { Y $ Y T } } } } E E T { { T | { [ $ Y E E { E { { } { } | { E E  .T ",
"O u B P b c m _ Y m D b B c c # b ) c c z c x g n z V B V b v # x = J J A B l F a M m B d Z b # b i F c x A m / b B C n c P A m ",
"O l l x u t c H h J G n u x z # c b c d i c x r x i m m J b = X c D x V B z b m 4 y B M c z 9 + v x v v x i z z z M u x b M B 9 ",
"O l n n = 3 x H h c c z y m z # m c t d m Y K B D F Y m ~ b $ @ i i n c K d M c x c c B m v $ + v c x b C 9 7 l % l D m z c c l ",
"  ; m z 7 y l c d d y 6 y u v # J V z z n F z Y c A b z 8 z 9 # i y m l h c c z m n c A A = 6 @ b J B f S b 3 t l u t B B d b y ",
"  u x l t u , x z V m z l i l # J A c z b u u m c m v n 8 l 7 # w B n x l u J l z z l l b z v + = n B c c b y e l l b a d w 9 S ",
"O = : : l c x ; c m m z d d A $ m V m i B r u t t x J m v 7 8 + b B c c i c u b C z M 7 z B = # x v c c n M t t z l 6 i g u 6 M ",
"O t b ( n c b n / n m z c B l X t F f b b M M t l z x : : b m # v A z l B t x J g x b 4 M c x X x c x t l z 7 l z u x x i G g t ",
"+ 7 V b m V N _ / ' ^ v l x 8 + t K M z z M f i x y c l v b ! # v z a c v ; u h g x b m v z z # l z m B i y m t i F m n x J c a ",
". w d m Y B B m m z b m A c z . 6 x l l t a z y z c c c a z v # c a d B z x v m F [ A n 9 v l + 8 l J Y F z M u r m m b x ^ z B ",
"+ z J K B c Y P c z c c x t t # 6 c D y z M z 3 7 c i F m A z # l z % u 0 v z z M C x g z n , X l x x K x c c J Z K F c x ^ m B ",
"O v n x y z m c v 0 V t x a p o M M F V B s B y t c a x m c 7 . u m n l t u x m x x z D z n n + n c d B M a i K A C P x > D K A ",
"+ M u z z f S S z b l z m V i # Z z A I Y m J c h Y z m m v l # x Z m K J m J G J u c c K n > + v F U I m c x K K z d c x c x V ",
"+ Y { { T E | | { { T T } } Y $ Y { |  .} { } } E } { { { { A $ A { { } } { } } E E T } } } [ $ Y } E E } E { E } { T T E T E W ",
"+ _  . . . . . . . . . . . .{ $ Y  . . . . .}  . . . . . . .{ $ {  . . . . . . . . .}  . . .{ $ {  . . . . .}  . . . . . . . . .",
"+ {  . . . . .W  . . . . . .[ $ Y  . . . . . . . . . . .|  .{ $ [  . . . .}  . . . . . . . .Y $ Y  . . . . . . . . . . . .|  . .",
"+ A { { E T E E { W E T } } Y $ Y  .T { } { } T T T T | | { A $ A { } { { { { } T T E E { { [ $ Y | T T { { T T {  .{ T { { T { ",
"+ v M C m n x J A V F B Y F D # c V V c m c B x i B M N S Z z @ z A Y h B l ! J a c c K b ^ n + b V t y l m Z Z A V z x v M z z ",
"O 1 z B F u z b z B z z n v m # i A V B M b 0 z z c M z ) C 9 @ v K y y z 3 z c B B g d B x ` + l B d t d t M C z c x u c F t p ",
"O = v V F u a a c z 6 z x V M @ z z y a z b M i M m b z q 0 0 @ $ m m z 7 % t m { P h A d 6 : O t P z c M b 9 c c B I P F h r f ",
"O x A A c h c u r f l n n c y # a z z 7 t 4 t z c c w c z z z @ 6 7 b z c l z _ A x D m b ~ 8 # M M 4 y i c z m m y M x G h I f ",
"+ v ( z 7 M l l t B b c c c z # m c x B x t c n z z z t F x l @ z z z n F i c z n n x b C m t @ C 4 y 7 x n F F z z b z P h J u ",
"+ b 9 z y l z l b i c c c b c # x x m K m x x c Z c i i u t 7 @ C 0 m m l y u m x h F i m K c $ K z l x n x c x m v J x m i c b ",
"O l i w w % x v c x x v n Y R # 6 4 i A m c b B c n n x e z z # b v Q b u t z d i h c P K R m # z b z D l 7 z c n ; > : c m c m ",
"O x v l y = % c n m l i 4 r t + v m B A b x x 4 z n n B d b l X u n l J x l u c B d y B b F x # z m c , t z M c J g x % V c A m ",
"O - v c s p y i B t u u c H ; + v c i b v m u t l i P j A c t . n x i x & x c b M z F m z d x # Y K V F v v z l x x l z z b m m ",
"O = m c g d l x c x u c b L - + $ m m b M M t m x r M c x B z # n v m n D J V v c J x B z c x # n A z c c q y 0 z y y z x c z n ",
"+ g x x x c h i m n z z A Y < + l b b z b P r z n z 6 9 b c z # m ( C n u B V Y m 0 C 6 c i t X 7 9 y z m z y z c z 9 b c K C l ",
"  i F ' K B j R ' J x Z S R J # F c c C ) c B B m c J b v B z # v K m l m P B P Y R C c f V 7 @ 7 b c S C l t B x m b c / _ v c ",
"+ Y { { } } }  .} } } { | } [ $ Y } } | { { { T } { } { { T Y $ _ { { { { } E W } } } } | { [ $ A { { | { T T { { { { { { { { { ",
"+ Y  . .}  . . . . . . . . .{ $ { }  . . . . . . . . . . . .{ $ {  . .}  . . . . . . . . . .{ $ {  . . . . . . . . . . . . . .} ",
"+ { } }  . . . . . . . . . .{ $ [  . . . . . . . . . . . .} { $ {  . . . . . .}  .}  . .} } { $ [  . . . . . . . . . . . . . . .",
"+ [ } { { W T { W T E E { { A $ Y } { { { { |  .} T { } { { A $ [ { { { E } E E | { {  .{ { A @ Y T | T { { { T | { { } } { } { ",
"O J F b R B B M W d c B K / b # b A Z B b m V { A x x x n l i # J m ^ ~ U F P I Z ! m B m b = @ a y P M m n z i A ! / [ F V c m ",
"O c F M B c z c x c c J K n v X t 4 z B y c S x v l n n z z i . z b m m c z c J m n n M Z z 3 . 0 u r c c c x y l x n P c b l V ",
"O J h z m ' c m c c m J ` ^ v X e g i m x c m n x z n M M c % . v z m x / b B x l t l c A m 8 @ 0 z w l b m B M x D x c n ^ u B ",
". c i c K m m Y R K z n m ` c X e e y Z c b ^ z i u F M M y t @ 3 t K I v b i e c t > F J n l # c c r B A m b c i c z x F ^ c x ",
"O l x F j F n J x x t B B / z # l i r a z n m i c d B 9 z D n @ t w ~ P 6 z c h d c x z x b 6 @ a j c 0 Z v 9 b q M t = b x m v ",
"O l x c h F n n x m b c V B l # ; , c z c D n x t z > b Z ) 8 + 6 7 v ^ m z V J c F z i i c 4 # c r g 4 2 z ~ n a z u > y B Y b ",
"  l c C t i y F P z b c b l v + x c c M a z ! ^ z x n l z b 6 + l 0 z b v B B x B B i c c J 6 + v x c 4 d r x F k j g x 0 M b b ",
"O x F C 7 t t c U c z x n > v + z t v y i 6 c l c c x > l z l # x m v z n m m y y M z 6 l z 6 # ; l z a B I m c k d i l z c b c ",
". t c b 7 c y c F 8 l c _ A l # c z 8 Z z s B x c P x z v z z # b x l x u z l d x n n b y a 7 @ t c c c B V r F B c Y C B P z y ",
"O n t 7 a c B F x z c B A K v # z z c M d p a z b c c d c y 6 # l z x x c V d P m V b c c b b # y c A m b b c h h r j m l z i t ",
"O v z 0 M Z B x x x c i x G x + z i e 7 B M B B A z B j d c 9 # % M z x x F c x x f z M z c c # t c c 9 v m P P F B m n n l 9 t ",
"O 8 9 C V V V c V c z y B c u # u B c ! v s B m c b m I P P _ # z z n x V f i P F n b M s y c # n x F A b b m B z J G K F x B U ",
"@ [ { { { W { W { { { T T T Y $ Y T T { { T { } T { { E E } [ $ A T { } { T T W } } { { W T Y $ Y { E { { { { { { { } } } { } } ",
"+ Y  . . . . . . . . . . . .Y $ {  . . . .{  . . . . . . .{ { $ Y  . . .}  . . . . .}  . . .{ $ [  . . . . . . . .}  . . . . . .",
"+ {  . . . . . . . . . . . .{ $ { }  . . . . . . . .}  . . .{ $ {  . . . . . . .}  . . . . .Y $ { } }  . . . . . .}  . . . . . .",
"+ A T {  .E T { { { } { { { A $ Y T T E { T { | { { { } { { Y $ A { } { E E  .E T { } E { { Y $ Y { { { { { W } { { { { T {  .} ",
"O D c [ Y c r m b B h m A b l . z z x c B c b { _ / n J x c b # x c C c d h P B b v x K c m x # z x x m ^ b B c m n m A c A T Y ",
"+ x i F z b t c b A t l c m & X l z x B j c P m A A C M M c c X ; n 9 z V h g d b ! m F g r u X l x i m J n v z D D D B b z Z c ",
"+ a F t 4 z z i F F x y d b z . w y x z z b B v z A V 4 7 z t . = n z l 7 c * ; / b C d i y u X l c x z c l b V i l i b z y r d ",
". w c y y M l c D ; l t B m c . 3 4 u 7 7 b i t m J i z a 7 l # i u M z b z F J B c N t d 9 v . l z D l r w B b 9 l x c c w 2 M "
};
