/* XPM */
static char *wood_planks[] = {
/* columns rows colors chars-per-pixel */
"32 32 3 1 ",
"  c #6B6B50501010",
". c #8B8B69691414",
"X c #A0A079792222",
/* pixels */
" ....... ....... ....... .......",
" ....... ....... ....... .......",
" ....... ....... ....... .......",
" ....... ....... ....... .......",
" XXXXXXX XXXXXXX XXXXXXX XXXXXXX",
" XXXXXXX XXXXXXX XXXXXXX XXXXXXX",
" XXXXXXX XXXXXXX XXXXXXX XXXXXXX",
" XXXXXXX XXXXXXX XXXXXXX XXXXXXX",
" ....... ....... ....... .......",
" ....... ....... ....... .......",
" ....... ....... ....... .......",
" ....... ....... ....... .......",
" XXXXXXX XXXXXXX XXXXXXX XXXXXXX",
" XXXXXXX XXXXXXX XXXXXXX XXXXXXX",
" XXXXXXX XXXXXXX XXXXXXX XXXXXXX",
" XXXXXXX XXXXXXX XXXXXXX XXXXXXX",
" ....... ....... ....... .......",
" ....... ....... ....... .......",
" ....... ....... ....... .......",
" ....... ....... ....... .......",
" XXXXXXX XXXXXXX XXXXXXX XXXXXXX",
" XXXXXXX XXXXXXX XXXXXXX XXXXXXX",
" XXXXXXX XXXXXXX XXXXXXX XXXXXXX",
" XXXXXXX XXXXXXX XXXXXXX XXXXXXX",
" ....... ....... ....... .......",
" ....... ....... ....... .......",
" ....... ....... ....... .......",
" ....... ....... ....... .......",
" XXXXXXX XXXXXXX XXXXXXX XXXXXXX",
" XXXXXXX XXXXXXX XXXXXXX XXXXXXX",
" XXXXXXX XXXXXXX XXXXXXX XXXXXXX",
" XXXXXXX XXXXXXX XXXXXXX XXXXXXX"
};
